<svg xmlns="http://www.w3.org/2000/svg" viewBox="0 0 400 280">
  <defs>
    <linearGradient id="textEncGrad" x1="0%" y1="0%" x2="100%" y2="0%">
      <stop offset="0%" style="stop-color:#F59E0B"/>
      <stop offset="100%" style="stop-color:#EAB308"/>
    </linearGradient>
    <linearGradient id="ditGrad" x1="0%" y1="0%" x2="100%" y2="0%">
      <stop offset="0%" style="stop-color:#8B5CF6"/>
      <stop offset="100%" style="stop-color:#EC4899"/>
    </linearGradient>
    <linearGradient id="vidDecGrad" x1="0%" y1="0%" x2="100%" y2="0%">
      <stop offset="0%" style="stop-color:#10B981"/>
      <stop offset="100%" style="stop-color:#059669"/>
    </linearGradient>
  </defs>
  
  <!-- Background -->
  <rect width="400" height="280" fill="#0F172A"/>
  
  <!-- Title -->
  <text x="200" y="22" font-family="system-ui, sans-serif" font-size="13" fill="#F1F5F9" text-anchor="middle" font-weight="bold">Video Generation (Sora-like)</text>
  
  <!-- Text Input -->
  <rect x="120" y="35" width="160" height="25" rx="5" fill="#1E293B" stroke="#F59E0B" stroke-width="1"/>
  <text x="200" y="52" font-family="system-ui, sans-serif" font-size="8" fill="#F59E0B" text-anchor="middle">"A dog playing in snow..."</text>
  
  <!-- Arrow -->
  <line x1="200" y1="65" x2="200" y2="75" stroke="#64748B" stroke-width="2"/>
  <polygon points="200,75 195,68 205,68" fill="#64748B"/>
  
  <!-- Text Encoder -->
  <rect x="110" y="80" width="180" height="35" rx="6" fill="url(#textEncGrad)"/>
  <text x="200" y="100" font-family="system-ui, sans-serif" font-size="10" fill="white" text-anchor="middle" font-weight="bold">Text Encoder (T5)</text>
  
  <!-- Arrow -->
  <line x1="200" y1="120" x2="200" y2="130" stroke="#64748B" stroke-width="2"/>
  <polygon points="200,130 195,123 205,123" fill="#64748B"/>
  
  <!-- DiT -->
  <rect x="70" y="135" width="260" height="80" rx="8" fill="url(#ditGrad)"/>
  <text x="200" y="157" font-family="system-ui, sans-serif" font-size="11" fill="white" text-anchor="middle" font-weight="bold">DiT (Diffusion Transformer)</text>
  <text x="200" y="175" font-family="system-ui, sans-serif" font-size="8" fill="#F5D0FE" text-anchor="middle">• Spacetime patches • Variable resolution</text>
  <text x="200" y="190" font-family="system-ui, sans-serif" font-size="8" fill="#F5D0FE" text-anchor="middle">• Variable duration • 3D positional encoding</text>
  <text x="200" y="205" font-family="system-ui, sans-serif" font-size="8" fill="#E9D5FF" text-anchor="middle">Flow matching or diffusion</text>
  
  <!-- Arrow -->
  <line x1="200" y1="220" x2="200" y2="230" stroke="#64748B" stroke-width="2"/>
  <polygon points="200,230 195,223 205,223" fill="#64748B"/>
  
  <!-- Video Decoder -->
  <rect x="110" y="235" width="180" height="30" rx="6" fill="url(#vidDecGrad)"/>
  <text x="200" y="255" font-family="system-ui, sans-serif" font-size="10" fill="white" text-anchor="middle" font-weight="bold">Video Decoder (VAE)</text>
  
  <!-- Output -->
  <text x="200" y="275" font-family="system-ui, sans-serif" font-size="18" fill="#10B981" text-anchor="middle">🎬</text>
</svg>

