<svg xmlns="http://www.w3.org/2000/svg" viewBox="0 0 800 280">
  <defs>
    <linearGradient id="encGrad" x1="0%" y1="0%" x2="100%" y2="0%">
      <stop offset="0%" style="stop-color:#3B82F6"/>
      <stop offset="100%" style="stop-color:#6366F1"/>
    </linearGradient>
    <linearGradient id="latentGrad2" x1="0%" y1="0%" x2="100%" y2="100%">
      <stop offset="0%" style="stop-color:#8B5CF6"/>
      <stop offset="100%" style="stop-color:#EC4899"/>
    </linearGradient>
    <linearGradient id="decGrad" x1="0%" y1="0%" x2="100%" y2="0%">
      <stop offset="0%" style="stop-color:#10B981"/>
      <stop offset="100%" style="stop-color:#059669"/>
    </linearGradient>
  </defs>
  
  <!-- Background -->
  <rect width="800" height="280" fill="#0F172A"/>
  
  <!-- Title -->
  <text x="400" y="25" font-family="system-ui, sans-serif" font-size="16" fill="#F1F5F9" text-anchor="middle" font-weight="bold">Variational Autoencoder (VAE)</text>
  
  <!-- Input -->
  <rect x="30" y="100" width="70" height="70" rx="8" fill="#1E293B" stroke="#475569" stroke-width="2"/>
  <text x="65" y="130" font-family="system-ui, sans-serif" font-size="18" fill="#94A3B8" text-anchor="middle">🖼️</text>
  <text x="65" y="155" font-family="system-ui, sans-serif" font-size="10" fill="#64748B" text-anchor="middle">x</text>
  
  <!-- Encoder -->
  <rect x="130" y="80" width="100" height="110" rx="10" fill="url(#encGrad)"/>
  <text x="180" y="120" font-family="system-ui, sans-serif" font-size="11" fill="white" text-anchor="middle" font-weight="bold">Encoder</text>
  <text x="180" y="140" font-family="system-ui, sans-serif" font-size="10" fill="#BFDBFE" text-anchor="middle">q(z|x)</text>
  <text x="180" y="175" font-family="system-ui, sans-serif" font-size="8" fill="#93C5FD" text-anchor="middle">Outputs μ, σ</text>
  
  <!-- Arrow -->
  <line x1="105" y1="135" x2="125" y2="135" stroke="#64748B" stroke-width="2"/>
  <polygon points="125,135 118,130 118,140" fill="#64748B"/>
  
  <!-- Mean and Variance boxes -->
  <rect x="260" y="80" width="60" height="40" rx="6" fill="#3B82F6"/>
  <text x="290" y="105" font-family="system-ui, sans-serif" font-size="11" fill="white" text-anchor="middle" font-weight="bold">μ</text>
  
  <rect x="260" y="150" width="60" height="40" rx="6" fill="#6366F1"/>
  <text x="290" y="175" font-family="system-ui, sans-serif" font-size="11" fill="white" text-anchor="middle" font-weight="bold">σ</text>
  
  <!-- Arrows to mu/sigma -->
  <line x1="235" y1="120" x2="255" y2="100" stroke="#64748B" stroke-width="2"/>
  <line x1="235" y1="150" x2="255" y2="170" stroke="#64748B" stroke-width="2"/>
  
  <!-- Reparameterization -->
  <rect x="350" y="100" width="100" height="70" rx="10" fill="url(#latentGrad2)"/>
  <text x="400" y="125" font-family="system-ui, sans-serif" font-size="10" fill="white" text-anchor="middle" font-weight="bold">Reparametrize</text>
  <text x="400" y="145" font-family="system-ui, sans-serif" font-size="9" fill="#F5D0FE" text-anchor="middle">z = μ + σ·ε</text>
  <text x="400" y="162" font-family="system-ui, sans-serif" font-size="8" fill="#E9D5FF" text-anchor="middle">ε ~ N(0,I)</text>
  
  <!-- Arrows to reparam -->
  <line x1="325" y1="100" x2="345" y2="120" stroke="#64748B" stroke-width="2"/>
  <line x1="325" y1="170" x2="345" y2="150" stroke="#64748B" stroke-width="2"/>
  
  <!-- Latent z -->
  <circle cx="500" cy="135" r="30" fill="#8B5CF6"/>
  <text x="500" y="140" font-family="system-ui, sans-serif" font-size="14" fill="white" text-anchor="middle" font-weight="bold">z</text>
  
  <!-- Arrow to z -->
  <line x1="455" y1="135" x2="465" y2="135" stroke="#64748B" stroke-width="2"/>
  <polygon points="465,135 458,130 458,140" fill="#64748B"/>
  
  <!-- Decoder -->
  <rect x="570" y="80" width="100" height="110" rx="10" fill="url(#decGrad)"/>
  <text x="620" y="120" font-family="system-ui, sans-serif" font-size="11" fill="white" text-anchor="middle" font-weight="bold">Decoder</text>
  <text x="620" y="140" font-family="system-ui, sans-serif" font-size="10" fill="#D1FAE5" text-anchor="middle">p(x|z)</text>
  <text x="620" y="175" font-family="system-ui, sans-serif" font-size="8" fill="#A7F3D0" text-anchor="middle">Reconstruct</text>
  
  <!-- Arrow to decoder -->
  <line x1="535" y1="135" x2="565" y2="135" stroke="#64748B" stroke-width="2"/>
  <polygon points="565,135 558,130 558,140" fill="#64748B"/>
  
  <!-- Output -->
  <rect x="700" y="100" width="70" height="70" rx="8" fill="#1E293B" stroke="#10B981" stroke-width="2"/>
  <text x="735" y="130" font-family="system-ui, sans-serif" font-size="18" fill="#10B981" text-anchor="middle">🖼️</text>
  <text x="735" y="155" font-family="system-ui, sans-serif" font-size="10" fill="#64748B" text-anchor="middle">x̂</text>
  
  <!-- Arrow to output -->
  <line x1="675" y1="135" x2="695" y2="135" stroke="#64748B" stroke-width="2"/>
  <polygon points="695,135 688,130 688,140" fill="#64748B"/>
  
  <!-- Loss -->
  <rect x="300" y="210" width="200" height="55" rx="8" fill="#1E293B" stroke="#F59E0B" stroke-width="2"/>
  <text x="400" y="232" font-family="system-ui, sans-serif" font-size="10" fill="#F59E0B" text-anchor="middle" font-weight="bold">ELBO Loss</text>
  <text x="400" y="252" font-family="system-ui, sans-serif" font-size="9" fill="#F1F5F9" text-anchor="middle">Recon + KL(q(z|x) || p(z))</text>
</svg>
