<svg xmlns="http://www.w3.org/2000/svg" viewBox="0 0 700 200">
  <defs>
    <linearGradient id="easyGrad" x1="0%" y1="0%" x2="100%" y2="0%">
      <stop offset="0%" style="stop-color:#10B981"/>
      <stop offset="100%" style="stop-color:#34D399"/>
    </linearGradient>
    <linearGradient id="medGrad" x1="0%" y1="0%" x2="100%" y2="0%">
      <stop offset="0%" style="stop-color:#F59E0B"/>
      <stop offset="100%" style="stop-color:#FBBF24"/>
    </linearGradient>
    <linearGradient id="hardGrad" x1="0%" y1="0%" x2="100%" y2="0%">
      <stop offset="0%" style="stop-color:#EF4444"/>
      <stop offset="100%" style="stop-color:#F87171"/>
    </linearGradient>
  </defs>
  
  <!-- Background -->
  <rect width="700" height="200" fill="#0F172A"/>
  
  <!-- Title -->
  <text x="350" y="25" font-family="system-ui, sans-serif" font-size="14" fill="#F1F5F9" text-anchor="middle" font-weight="bold">Project Difficulty Progression</text>
  
  <!-- Difficulty bar -->
  <rect x="50" y="60" width="600" height="30" rx="5" fill="#1E293B"/>
  
  <!-- Easy section -->
  <rect x="50" y="60" width="180" height="30" rx="5" fill="url(#easyGrad)" opacity="0.8"/>
  <text x="140" y="80" font-family="system-ui, sans-serif" font-size="11" fill="white" text-anchor="middle" font-weight="bold">🟢 Beginner</text>
  
  <!-- Medium section -->
  <rect x="230" y="60" width="200" height="30" fill="url(#medGrad)" opacity="0.8"/>
  <text x="330" y="80" font-family="system-ui, sans-serif" font-size="11" fill="white" text-anchor="middle" font-weight="bold">🟡 Intermediate</text>
  
  <!-- Hard section -->
  <rect x="430" y="60" width="220" height="30" rx="5" fill="url(#hardGrad)" opacity="0.8"/>
  <text x="540" y="80" font-family="system-ui, sans-serif" font-size="11" fill="white" text-anchor="middle" font-weight="bold">🔴 Advanced</text>
  
  <!-- Project markers -->
  <!-- GAN from scratch -->
  <circle cx="100" cy="110" r="6" fill="#10B981"/>
  <line x1="100" y1="95" x2="100" y2="104" stroke="#10B981" stroke-width="2"/>
  <text x="100" y="130" font-family="system-ui, sans-serif" font-size="8" fill="#94A3B8" text-anchor="middle">GAN</text>
  <text x="100" y="142" font-family="system-ui, sans-serif" font-size="8" fill="#94A3B8" text-anchor="middle">Scratch</text>
  
  <!-- Diffusion from scratch -->
  <circle cx="200" cy="110" r="6" fill="#34D399"/>
  <line x1="200" y1="95" x2="200" y2="104" stroke="#34D399" stroke-width="2"/>
  <text x="200" y="130" font-family="system-ui, sans-serif" font-size="8" fill="#94A3B8" text-anchor="middle">Diffusion</text>
  <text x="200" y="142" font-family="system-ui, sans-serif" font-size="8" fill="#94A3B8" text-anchor="middle">Scratch</text>
  
  <!-- Latent Diffusion Mini -->
  <circle cx="320" cy="110" r="6" fill="#F59E0B"/>
  <line x1="320" y1="95" x2="320" y2="104" stroke="#F59E0B" stroke-width="2"/>
  <text x="320" y="130" font-family="system-ui, sans-serif" font-size="8" fill="#94A3B8" text-anchor="middle">Latent</text>
  <text x="320" y="142" font-family="system-ui, sans-serif" font-size="8" fill="#94A3B8" text-anchor="middle">Diffusion</text>
  
  <!-- Text to Image Mini -->
  <circle cx="420" cy="110" r="6" fill="#FBBF24"/>
  <line x1="420" y1="95" x2="420" y2="104" stroke="#FBBF24" stroke-width="2"/>
  <text x="420" y="130" font-family="system-ui, sans-serif" font-size="8" fill="#94A3B8" text-anchor="middle">Text2Img</text>
  <text x="420" y="142" font-family="system-ui, sans-serif" font-size="8" fill="#94A3B8" text-anchor="middle">Mini</text>
  
  <!-- ControlNet Mini -->
  <circle cx="520" cy="110" r="6" fill="#EF4444"/>
  <line x1="520" y1="95" x2="520" y2="104" stroke="#EF4444" stroke-width="2"/>
  <text x="520" y="130" font-family="system-ui, sans-serif" font-size="8" fill="#94A3B8" text-anchor="middle">ControlNet</text>
  <text x="520" y="142" font-family="system-ui, sans-serif" font-size="8" fill="#94A3B8" text-anchor="middle">Mini</text>
  
  <!-- Speed Optimized -->
  <circle cx="620" cy="110" r="6" fill="#F87171"/>
  <line x1="620" y1="95" x2="620" y2="104" stroke="#F87171" stroke-width="2"/>
  <text x="620" y="130" font-family="system-ui, sans-serif" font-size="8" fill="#94A3B8" text-anchor="middle">Speed</text>
  <text x="620" y="142" font-family="system-ui, sans-serif" font-size="8" fill="#94A3B8" text-anchor="middle">Optimized</text>
  
  <!-- Arrow -->
  <line x1="50" y1="170" x2="650" y2="170" stroke="#475569" stroke-width="1"/>
  <polygon points="650,170 640,165 640,175" fill="#475569"/>
  <text x="350" y="185" font-family="system-ui, sans-serif" font-size="9" fill="#64748B" text-anchor="middle">Increasing Complexity →</text>
</svg>

