<svg xmlns="http://www.w3.org/2000/svg" viewBox="0 0 850 320">
  <defs>
    <linearGradient id="timelineGrad" x1="0%" y1="0%" x2="100%" y2="0%">
      <stop offset="0%" style="stop-color:#6366F1"/>
      <stop offset="50%" style="stop-color:#8B5CF6"/>
      <stop offset="100%" style="stop-color:#EC4899"/>
    </linearGradient>
    <linearGradient id="progressGrad" x1="0%" y1="0%" x2="100%" y2="0%">
      <stop offset="0%" style="stop-color:#10B981"/>
      <stop offset="100%" style="stop-color:#34D399"/>
    </linearGradient>
  </defs>
  
  <!-- Background -->
  <rect width="850" height="320" fill="#0F172A"/>
  
  <!-- Title -->
  <text x="425" y="30" font-family="system-ui, sans-serif" font-size="18" fill="#F1F5F9" text-anchor="middle" font-weight="bold">The Evolution of GANs (2014 - 2024)</text>
  
  <!-- Timeline -->
  <line x1="50" y1="80" x2="800" y2="80" stroke="url(#timelineGrad)" stroke-width="4"/>
  <circle cx="50" cy="80" r="8" fill="#6366F1"/>
  <circle cx="800" cy="80" r="8" fill="#EC4899"/>
  
  <!-- Year markers -->
  <text x="50" y="60" font-family="system-ui, sans-serif" font-size="12" fill="#94A3B8" text-anchor="middle">2014</text>
  <text x="800" y="60" font-family="system-ui, sans-serif" font-size="12" fill="#94A3B8" text-anchor="middle">2024</text>
  
  <!-- GAN Milestones -->
  <!-- Original GAN -->
  <circle cx="80" cy="80" r="6" fill="#FBBF24"/>
  <line x1="80" y1="86" x2="80" y2="110" stroke="#475569" stroke-width="1"/>
  <rect x="30" y="110" width="100" height="45" rx="5" fill="#1E293B" stroke="#FBBF24" stroke-width="1"/>
  <text x="80" y="128" font-family="system-ui, sans-serif" font-size="10" fill="#FBBF24" text-anchor="middle" font-weight="bold">GAN</text>
  <text x="80" y="145" font-family="system-ui, sans-serif" font-size="8" fill="#94A3B8" text-anchor="middle">"It works?!"</text>
  
  <!-- DCGAN -->
  <circle cx="180" cy="80" r="6" fill="#3B82F6"/>
  <line x1="180" y1="86" x2="180" y2="110" stroke="#475569" stroke-width="1"/>
  <rect x="130" y="110" width="100" height="45" rx="5" fill="#1E293B" stroke="#3B82F6" stroke-width="1"/>
  <text x="180" y="128" font-family="system-ui, sans-serif" font-size="10" fill="#3B82F6" text-anchor="middle" font-weight="bold">DCGAN</text>
  <text x="180" y="145" font-family="system-ui, sans-serif" font-size="8" fill="#94A3B8" text-anchor="middle">Architecture</text>
  
  <!-- cGAN -->
  <circle cx="280" cy="80" r="6" fill="#A855F7"/>
  <line x1="280" y1="74" x2="280" y2="50" stroke="#475569" stroke-width="1"/>
  <rect x="230" y="15" width="100" height="35" rx="5" fill="#1E293B" stroke="#A855F7" stroke-width="1"/>
  <text x="280" y="32" font-family="system-ui, sans-serif" font-size="10" fill="#A855F7" text-anchor="middle" font-weight="bold">cGAN</text>
  <text x="280" y="45" font-family="system-ui, sans-serif" font-size="8" fill="#94A3B8" text-anchor="middle">Conditional</text>
  
  <!-- WGAN -->
  <circle cx="380" cy="80" r="6" fill="#10B981"/>
  <line x1="380" y1="86" x2="380" y2="110" stroke="#475569" stroke-width="1"/>
  <rect x="330" y="110" width="100" height="45" rx="5" fill="#1E293B" stroke="#10B981" stroke-width="1"/>
  <text x="380" y="128" font-family="system-ui, sans-serif" font-size="10" fill="#10B981" text-anchor="middle" font-weight="bold">WGAN</text>
  <text x="380" y="145" font-family="system-ui, sans-serif" font-size="8" fill="#94A3B8" text-anchor="middle">Stability</text>
  
  <!-- WGAN-GP -->
  <circle cx="450" cy="80" r="6" fill="#10B981"/>
  <line x1="450" y1="74" x2="450" y2="50" stroke="#475569" stroke-width="1"/>
  <rect x="400" y="15" width="100" height="35" rx="5" fill="#1E293B" stroke="#10B981" stroke-width="1"/>
  <text x="450" y="32" font-family="system-ui, sans-serif" font-size="10" fill="#10B981" text-anchor="middle" font-weight="bold">WGAN-GP</text>
  <text x="450" y="45" font-family="system-ui, sans-serif" font-size="8" fill="#94A3B8" text-anchor="middle">Grad Penalty</text>
  
  <!-- CycleGAN -->
  <circle cx="550" cy="80" r="6" fill="#F59E0B"/>
  <line x1="550" y1="86" x2="550" y2="110" stroke="#475569" stroke-width="1"/>
  <rect x="500" y="110" width="100" height="45" rx="5" fill="#1E293B" stroke="#F59E0B" stroke-width="1"/>
  <text x="550" y="128" font-family="system-ui, sans-serif" font-size="10" fill="#F59E0B" text-anchor="middle" font-weight="bold">CycleGAN</text>
  <text x="550" y="145" font-family="system-ui, sans-serif" font-size="8" fill="#94A3B8" text-anchor="middle">Unpaired</text>
  
  <!-- StyleGAN -->
  <circle cx="650" cy="80" r="6" fill="#EC4899"/>
  <line x1="650" y1="74" x2="650" y2="50" stroke="#475569" stroke-width="1"/>
  <rect x="600" y="15" width="100" height="35" rx="5" fill="#1E293B" stroke="#EC4899" stroke-width="1"/>
  <text x="650" y="32" font-family="system-ui, sans-serif" font-size="10" fill="#EC4899" text-anchor="middle" font-weight="bold">StyleGAN</text>
  <text x="650" y="45" font-family="system-ui, sans-serif" font-size="8" fill="#94A3B8" text-anchor="middle">High Quality</text>
  
  <!-- BigGAN / StyleGAN-XL -->
  <circle cx="750" cy="80" r="6" fill="#EF4444"/>
  <line x1="750" y1="86" x2="750" y2="110" stroke="#475569" stroke-width="1"/>
  <rect x="700" y="110" width="100" height="45" rx="5" fill="#1E293B" stroke="#EF4444" stroke-width="1"/>
  <text x="750" y="128" font-family="system-ui, sans-serif" font-size="10" fill="#EF4444" text-anchor="middle" font-weight="bold">StyleGAN-XL</text>
  <text x="750" y="145" font-family="system-ui, sans-serif" font-size="8" fill="#94A3B8" text-anchor="middle">Scale</text>
  
  <!-- Progress Bars -->
  <text x="50" y="200" font-family="system-ui, sans-serif" font-size="11" fill="#94A3B8">Resolution:</text>
  <rect x="130" y="190" width="620" height="15" rx="3" fill="#1E293B"/>
  <rect x="130" y="190" width="620" height="15" rx="3" fill="url(#progressGrad)" opacity="0.3"/>
  <rect x="130" y="190" width="550" height="15" rx="3" fill="url(#progressGrad)"/>
  <text x="145" y="202" font-family="system-ui, sans-serif" font-size="9" fill="#1E293B" font-weight="bold">32×32</text>
  <text x="700" y="202" font-family="system-ui, sans-serif" font-size="9" fill="#10B981" font-weight="bold">1024×1024+</text>
  
  <text x="50" y="230" font-family="system-ui, sans-serif" font-size="11" fill="#94A3B8">FID Score:</text>
  <rect x="130" y="220" width="620" height="15" rx="3" fill="#1E293B"/>
  <rect x="130" y="220" width="580" height="15" rx="3" fill="#3B82F6"/>
  <text x="145" y="232" font-family="system-ui, sans-serif" font-size="9" fill="white" font-weight="bold">50+</text>
  <text x="700" y="232" font-family="system-ui, sans-serif" font-size="9" fill="#3B82F6" font-weight="bold">&lt;3</text>
  
  <text x="50" y="260" font-family="system-ui, sans-serif" font-size="11" fill="#94A3B8">Stability:</text>
  <rect x="130" y="250" width="620" height="15" rx="3" fill="#1E293B"/>
  <rect x="130" y="250" width="600" height="15" rx="3" fill="#F59E0B"/>
  <text x="145" y="262" font-family="system-ui, sans-serif" font-size="9" fill="#1E293B" font-weight="bold">😰 Unstable</text>
  <text x="700" y="262" font-family="system-ui, sans-serif" font-size="9" fill="#F59E0B" font-weight="bold">😊 Stable</text>
  
  <!-- Footer -->
  <text x="425" y="300" font-family="system-ui, sans-serif" font-size="10" fill="#64748B" text-anchor="middle" font-style="italic">From 32×32 pixels to photorealistic 1024×1024 faces in 10 years</text>
</svg>

