<svg xmlns="http://www.w3.org/2000/svg" viewBox="0 0 500 220">
  <defs>
    <linearGradient id="bgGrad6" x1="0%" y1="0%" x2="100%" y2="100%">
      <stop offset="0%" style="stop-color:#0f172a"/>
      <stop offset="100%" style="stop-color:#1e293b"/>
    </linearGradient>
  </defs>
  
  <!-- Background -->
  <rect width="500" height="220" fill="url(#bgGrad6)" rx="12"/>
  
  <!-- Title -->
  <text x="250" y="28" font-family="JetBrains Mono, Consolas, monospace" font-size="14" font-weight="bold" fill="#e2e8f0" text-anchor="middle">Checkerboard Masking Patterns</text>
  
  <!-- Mask A -->
  <text x="125" y="55" font-family="JetBrains Mono, Consolas, monospace" font-size="12" fill="#60a5fa" text-anchor="middle">Mask A</text>
  
  <g transform="translate(45, 65)">
    <!-- Row 1 -->
    <rect x="0" y="0" width="35" height="35" fill="#3b82f6" rx="2"/>
    <text x="17.5" y="23" font-family="JetBrains Mono, monospace" font-size="16" fill="white" text-anchor="middle">1</text>
    <rect x="40" y="0" width="35" height="35" fill="#334155" rx="2"/>
    <text x="57.5" y="23" font-family="JetBrains Mono, monospace" font-size="16" fill="#64748b" text-anchor="middle">0</text>
    <rect x="80" y="0" width="35" height="35" fill="#3b82f6" rx="2"/>
    <text x="97.5" y="23" font-family="JetBrains Mono, monospace" font-size="16" fill="white" text-anchor="middle">1</text>
    <rect x="120" y="0" width="35" height="35" fill="#334155" rx="2"/>
    <text x="137.5" y="23" font-family="JetBrains Mono, monospace" font-size="16" fill="#64748b" text-anchor="middle">0</text>
    
    <!-- Row 2 -->
    <rect x="0" y="40" width="35" height="35" fill="#334155" rx="2"/>
    <text x="17.5" y="63" font-family="JetBrains Mono, monospace" font-size="16" fill="#64748b" text-anchor="middle">0</text>
    <rect x="40" y="40" width="35" height="35" fill="#3b82f6" rx="2"/>
    <text x="57.5" y="63" font-family="JetBrains Mono, monospace" font-size="16" fill="white" text-anchor="middle">1</text>
    <rect x="80" y="40" width="35" height="35" fill="#334155" rx="2"/>
    <text x="97.5" y="63" font-family="JetBrains Mono, monospace" font-size="16" fill="#64748b" text-anchor="middle">0</text>
    <rect x="120" y="40" width="35" height="35" fill="#3b82f6" rx="2"/>
    <text x="137.5" y="63" font-family="JetBrains Mono, monospace" font-size="16" fill="white" text-anchor="middle">1</text>
    
    <!-- Row 3 -->
    <rect x="0" y="80" width="35" height="35" fill="#3b82f6" rx="2"/>
    <text x="17.5" y="103" font-family="JetBrains Mono, monospace" font-size="16" fill="white" text-anchor="middle">1</text>
    <rect x="40" y="80" width="35" height="35" fill="#334155" rx="2"/>
    <text x="57.5" y="103" font-family="JetBrains Mono, monospace" font-size="16" fill="#64748b" text-anchor="middle">0</text>
    <rect x="80" y="80" width="35" height="35" fill="#3b82f6" rx="2"/>
    <text x="97.5" y="103" font-family="JetBrains Mono, monospace" font-size="16" fill="white" text-anchor="middle">1</text>
    <rect x="120" y="80" width="35" height="35" fill="#334155" rx="2"/>
    <text x="137.5" y="103" font-family="JetBrains Mono, monospace" font-size="16" fill="#64748b" text-anchor="middle">0</text>
    
    <!-- Row 4 -->
    <rect x="0" y="120" width="35" height="35" fill="#334155" rx="2"/>
    <text x="17.5" y="143" font-family="JetBrains Mono, monospace" font-size="16" fill="#64748b" text-anchor="middle">0</text>
    <rect x="40" y="120" width="35" height="35" fill="#3b82f6" rx="2"/>
    <text x="57.5" y="143" font-family="JetBrains Mono, monospace" font-size="16" fill="white" text-anchor="middle">1</text>
    <rect x="80" y="120" width="35" height="35" fill="#334155" rx="2"/>
    <text x="97.5" y="143" font-family="JetBrains Mono, monospace" font-size="16" fill="#64748b" text-anchor="middle">0</text>
    <rect x="120" y="120" width="35" height="35" fill="#3b82f6" rx="2"/>
    <text x="137.5" y="143" font-family="JetBrains Mono, monospace" font-size="16" fill="white" text-anchor="middle">1</text>
  </g>
  
  <!-- Mask B -->
  <text x="375" y="55" font-family="JetBrains Mono, Consolas, monospace" font-size="12" fill="#10b981" text-anchor="middle">Mask B</text>
  
  <g transform="translate(295, 65)">
    <!-- Row 1 -->
    <rect x="0" y="0" width="35" height="35" fill="#334155" rx="2"/>
    <text x="17.5" y="23" font-family="JetBrains Mono, monospace" font-size="16" fill="#64748b" text-anchor="middle">0</text>
    <rect x="40" y="0" width="35" height="35" fill="#10b981" rx="2"/>
    <text x="57.5" y="23" font-family="JetBrains Mono, monospace" font-size="16" fill="white" text-anchor="middle">1</text>
    <rect x="80" y="0" width="35" height="35" fill="#334155" rx="2"/>
    <text x="97.5" y="23" font-family="JetBrains Mono, monospace" font-size="16" fill="#64748b" text-anchor="middle">0</text>
    <rect x="120" y="0" width="35" height="35" fill="#10b981" rx="2"/>
    <text x="137.5" y="23" font-family="JetBrains Mono, monospace" font-size="16" fill="white" text-anchor="middle">1</text>
    
    <!-- Row 2 -->
    <rect x="0" y="40" width="35" height="35" fill="#10b981" rx="2"/>
    <text x="17.5" y="63" font-family="JetBrains Mono, monospace" font-size="16" fill="white" text-anchor="middle">1</text>
    <rect x="40" y="40" width="35" height="35" fill="#334155" rx="2"/>
    <text x="57.5" y="63" font-family="JetBrains Mono, monospace" font-size="16" fill="#64748b" text-anchor="middle">0</text>
    <rect x="80" y="40" width="35" height="35" fill="#10b981" rx="2"/>
    <text x="97.5" y="63" font-family="JetBrains Mono, monospace" font-size="16" fill="white" text-anchor="middle">1</text>
    <rect x="120" y="40" width="35" height="35" fill="#334155" rx="2"/>
    <text x="137.5" y="63" font-family="JetBrains Mono, monospace" font-size="16" fill="#64748b" text-anchor="middle">0</text>
    
    <!-- Row 3 -->
    <rect x="0" y="80" width="35" height="35" fill="#334155" rx="2"/>
    <text x="17.5" y="103" font-family="JetBrains Mono, monospace" font-size="16" fill="#64748b" text-anchor="middle">0</text>
    <rect x="40" y="80" width="35" height="35" fill="#10b981" rx="2"/>
    <text x="57.5" y="103" font-family="JetBrains Mono, monospace" font-size="16" fill="white" text-anchor="middle">1</text>
    <rect x="80" y="80" width="35" height="35" fill="#334155" rx="2"/>
    <text x="97.5" y="103" font-family="JetBrains Mono, monospace" font-size="16" fill="#64748b" text-anchor="middle">0</text>
    <rect x="120" y="80" width="35" height="35" fill="#10b981" rx="2"/>
    <text x="137.5" y="103" font-family="JetBrains Mono, monospace" font-size="16" fill="white" text-anchor="middle">1</text>
    
    <!-- Row 4 -->
    <rect x="0" y="120" width="35" height="35" fill="#10b981" rx="2"/>
    <text x="17.5" y="143" font-family="JetBrains Mono, monospace" font-size="16" fill="white" text-anchor="middle">1</text>
    <rect x="40" y="120" width="35" height="35" fill="#334155" rx="2"/>
    <text x="57.5" y="143" font-family="JetBrains Mono, monospace" font-size="16" fill="#64748b" text-anchor="middle">0</text>
    <rect x="80" y="120" width="35" height="35" fill="#10b981" rx="2"/>
    <text x="97.5" y="143" font-family="JetBrains Mono, monospace" font-size="16" fill="white" text-anchor="middle">1</text>
    <rect x="120" y="120" width="35" height="35" fill="#334155" rx="2"/>
    <text x="137.5" y="143" font-family="JetBrains Mono, monospace" font-size="16" fill="#64748b" text-anchor="middle">0</text>
  </g>
  
  <!-- Legend -->
  <rect x="175" y="60" width="150" height="100" rx="6" fill="#1e293b" stroke="#475569" stroke-width="1"/>
  <text x="250" y="82" font-family="sans-serif" font-size="10" fill="#94a3b8" text-anchor="middle">Alternating layers use</text>
  <text x="250" y="97" font-family="sans-serif" font-size="10" fill="#94a3b8" text-anchor="middle">opposite masks for</text>
  <text x="250" y="112" font-family="sans-serif" font-size="10" fill="#94a3b8" text-anchor="middle">full expressiveness</text>
  
  <rect x="200" y="125" width="15" height="15" fill="#3b82f6" rx="2"/>
  <text x="222" y="137" font-family="sans-serif" font-size="9" fill="#94a3b8">= unchanged</text>
  
  <rect x="200" y="145" width="15" height="15" fill="#334155" rx="2"/>
  <text x="222" y="157" font-family="sans-serif" font-size="9" fill="#94a3b8">= transformed</text>
</svg>

