<svg xmlns="http://www.w3.org/2000/svg" viewBox="0 0 900 500">
  <defs>
    <linearGradient id="bg3D" x1="0%" y1="0%" x2="100%" y2="100%">
      <stop offset="0%" style="stop-color:#0a1628"/>
      <stop offset="50%" style="stop-color:#1a0a28"/>
      <stop offset="100%" style="stop-color:#281a0a"/>
    </linearGradient>
    <linearGradient id="nerfGrad" x1="0%" y1="0%" x2="100%" y2="0%">
      <stop offset="0%" style="stop-color:#f093fb"/>
      <stop offset="100%" style="stop-color:#f5576c"/>
    </linearGradient>
    <linearGradient id="sdsGrad" x1="0%" y1="0%" x2="100%" y2="0%">
      <stop offset="0%" style="stop-color:#667eea"/>
      <stop offset="100%" style="stop-color:#764ba2"/>
    </linearGradient>
    <linearGradient id="meshGrad" x1="0%" y1="0%" x2="100%" y2="100%">
      <stop offset="0%" style="stop-color:#feca57"/>
      <stop offset="100%" style="stop-color:#ff9ff3"/>
    </linearGradient>
    <filter id="glow3D">
      <feGaussianBlur stdDeviation="4" result="blur"/>
      <feMerge><feMergeNode in="blur"/><feMergeNode in="SourceGraphic"/></feMerge>
    </filter>
  </defs>
  
  <rect width="900" height="500" fill="url(#bg3D)"/>
  
  <!-- Decorative 3D wireframe background -->
  <g opacity="0.1" stroke="#f093fb" stroke-width="0.5" fill="none">
    <polygon points="200,100 300,150 250,200 150,150"/>
    <polygon points="650,80 750,100 730,180 630,160"/>
    <polygon points="100,350 180,380 150,420 70,390"/>
  </g>
  
  <text x="450" y="45" text-anchor="middle" font-family="system-ui" font-size="32" font-weight="700" fill="white" filter="url(#glow3D)">
    🎲 3D Generation
  </text>
  <text x="450" y="80" text-anchor="middle" font-family="system-ui" font-size="15" fill="rgba(255,255,255,0.7)">
    Creating 3D objects from text and images using diffusion priors
  </text>
  
  <!-- Main pipeline visualization -->
  <g transform="translate(450, 270)">
    <!-- Text prompt input -->
    <g transform="translate(-320, 0)">
      <rect x="-70" y="-50" width="140" height="100" rx="12" fill="rgba(102,126,234,0.15)" stroke="#667eea" stroke-width="2"/>
      <text y="-20" text-anchor="middle" font-family="system-ui" font-size="12" font-weight="600" fill="#a5b4fc">Text Prompt</text>
      <text y="5" text-anchor="middle" font-family="system-ui" font-size="20">📝</text>
      <text y="30" text-anchor="middle" font-family="monospace" font-size="9" fill="rgba(255,255,255,0.5)">"A peacock"</text>
    </g>
    
    <!-- Arrow -->
    <path d="M -230,0 L -180,0" stroke="rgba(255,255,255,0.4)" stroke-width="2" marker-end="url(#arrow3D)"/>
    <marker id="arrow3D" markerWidth="10" markerHeight="7" refX="9" refY="3.5" orient="auto">
      <polygon points="0 0, 10 3.5, 0 7" fill="rgba(255,255,255,0.4)"/>
    </marker>
    
    <!-- Diffusion Model box -->
    <g transform="translate(-100, 0)">
      <rect x="-75" y="-60" width="150" height="120" rx="12" fill="rgba(240,147,251,0.15)" stroke="url(#nerfGrad)" stroke-width="2" filter="url(#glow3D)"/>
      <text y="-35" text-anchor="middle" font-family="system-ui" font-size="12" font-weight="600" fill="#f5a5c9">2D Diffusion</text>
      <text y="-15" text-anchor="middle" font-family="system-ui" font-size="11" fill="rgba(255,255,255,0.6)">Model (Frozen)</text>
      
      <!-- Mini image representations -->
      <rect x="-40" y="5" width="25" height="25" rx="3" fill="rgba(255,255,255,0.1)" stroke="#f5576c"/>
      <rect x="-8" y="5" width="25" height="25" rx="3" fill="rgba(255,255,255,0.15)" stroke="#f5576c"/>
      <rect x="24" y="5" width="25" height="25" rx="3" fill="rgba(255,255,255,0.2)" stroke="#f5576c"/>
      <text y="50" text-anchor="middle" font-family="monospace" font-size="9" fill="rgba(255,255,255,0.5)">Multi-view renders</text>
    </g>
    
    <!-- SDS gradient arrow -->
    <g transform="translate(50, 0)">
      <path d="M -20,-30 L 20,-30 L 20,30 L -20,30 Z" fill="rgba(102,126,234,0.2)" stroke="url(#sdsGrad)" stroke-width="2" stroke-dasharray="5,3"/>
      <text y="5" text-anchor="middle" font-family="system-ui" font-size="11" fill="#a5b4fc">SDS</text>
      <text y="55" text-anchor="middle" font-family="system-ui" font-size="9" fill="rgba(255,255,255,0.5)">∇_θ L_SDS</text>
    </g>
    
    <!-- 3D representation -->
    <g transform="translate(180, 0)">
      <rect x="-75" y="-60" width="150" height="120" rx="12" fill="rgba(254,202,87,0.15)" stroke="url(#meshGrad)" stroke-width="2"/>
      <text y="-35" text-anchor="middle" font-family="system-ui" font-size="12" font-weight="600" fill="#feca57">3D Representation</text>
      
      <!-- NeRF/3DGS visualization -->
      <g transform="translate(0, 15)">
        <!-- Simple 3D cube wireframe -->
        <polygon points="-25,-20 25,-20 35,-5 -15,-5" fill="none" stroke="#feca57" stroke-width="1.5"/>
        <polygon points="-25,-20 -15,-5 -15,25 -25,10" fill="none" stroke="#feca57" stroke-width="1.5"/>
        <polygon points="-15,-5 35,-5 35,25 -15,25" fill="rgba(254,202,87,0.2)" stroke="#feca57" stroke-width="1.5"/>
      </g>
      <text y="55" text-anchor="middle" font-family="monospace" font-size="9" fill="rgba(255,255,255,0.5)">NeRF / 3DGS / Mesh</text>
    </g>
    
    <!-- Output -->
    <g transform="translate(320, 0)">
      <rect x="-55" y="-50" width="110" height="100" rx="12" fill="rgba(34,197,94,0.15)" stroke="#22c55e" stroke-width="2" filter="url(#glow3D)"/>
      <text y="-20" text-anchor="middle" font-family="system-ui" font-size="24">🦚</text>
      <text y="10" text-anchor="middle" font-family="system-ui" font-size="12" font-weight="600" fill="#4ade80">3D Model</text>
      <text y="30" text-anchor="middle" font-family="monospace" font-size="9" fill="rgba(255,255,255,0.5)">Exportable</text>
    </g>
  </g>
  
  <!-- SDS Formula -->
  <g transform="translate(450, 410)">
    <rect x="-380" y="-30" width="760" height="55" rx="10" fill="rgba(255,255,255,0.03)" stroke="rgba(255,255,255,0.1)"/>
    <text y="-5" text-anchor="middle" font-family="system-ui" font-size="12" font-weight="600" fill="#f5a5c9">Score Distillation Sampling (SDS)</text>
    <text y="18" text-anchor="middle" font-family="serif" font-size="14" fill="rgba(255,255,255,0.8)">
      ∇_θ L_SDS = 𝔼[w(t)(ε_φ(x_t; t, y) - ε) ∂x/∂θ]
    </text>
  </g>
  
  <!-- Methods boxes -->
  <g transform="translate(450, 470)">
    <g transform="translate(-280, 0)">
      <rect x="-70" y="-15" width="140" height="30" rx="6" fill="rgba(240,147,251,0.2)" stroke="#f093fb"/>
      <text y="5" text-anchor="middle" font-family="system-ui" font-size="11" fill="#f5a5c9">DreamFusion</text>
    </g>
    <g transform="translate(-90, 0)">
      <rect x="-70" y="-15" width="140" height="30" rx="6" fill="rgba(254,202,87,0.2)" stroke="#feca57"/>
      <text y="5" text-anchor="middle" font-family="system-ui" font-size="11" fill="#fde68a">Magic3D</text>
    </g>
    <g transform="translate(100, 0)">
      <rect x="-70" y="-15" width="140" height="30" rx="6" fill="rgba(102,126,234,0.2)" stroke="#667eea"/>
      <text y="5" text-anchor="middle" font-family="system-ui" font-size="11" fill="#a5b4fc">Zero-1-to-3</text>
    </g>
    <g transform="translate(290, 0)">
      <rect x="-70" y="-15" width="140" height="30" rx="6" fill="rgba(34,197,94,0.2)" stroke="#22c55e"/>
      <text y="5" text-anchor="middle" font-family="system-ui" font-size="11" fill="#4ade80">LRM</text>
    </g>
  </g>
</svg>

