<svg xmlns="http://www.w3.org/2000/svg" viewBox="0 0 900 450">
  <defs>
    <linearGradient id="bgInv" x1="0%" y1="0%" x2="100%" y2="100%">
      <stop offset="0%" style="stop-color:#0a0a1a"/>
      <stop offset="100%" style="stop-color:#0a281a"/>
    </linearGradient>
    
    <linearGradient id="cyanInv" x1="0%" y1="0%" x2="100%" y2="0%">
      <stop offset="0%" style="stop-color:#06b6d4"/>
      <stop offset="100%" style="stop-color:#22d3ee"/>
    </linearGradient>
    
    <linearGradient id="pinkInv" x1="0%" y1="0%" x2="100%" y2="0%">
      <stop offset="0%" style="stop-color:#ec4899"/>
      <stop offset="100%" style="stop-color:#f472b6"/>
    </linearGradient>
    
    <linearGradient id="greenInv" x1="0%" y1="0%" x2="100%" y2="0%">
      <stop offset="0%" style="stop-color:#10b981"/>
      <stop offset="100%" style="stop-color:#34d399"/>
    </linearGradient>
    
    <filter id="glowInv">
      <feGaussianBlur stdDeviation="4" result="coloredBlur"/>
      <feMerge><feMergeNode in="coloredBlur"/><feMergeNode in="SourceGraphic"/></feMerge>
    </filter>
    
    <filter id="shadowInv">
      <feDropShadow dx="0" dy="4" stdDeviation="6" flood-color="rgba(0,0,0,0.4)"/>
    </filter>
    
    <pattern id="gridInv" width="20" height="20" patternUnits="userSpaceOnUse">
      <path d="M 20 0 L 0 0 0 20" fill="none" stroke="rgba(255,255,255,0.02)" stroke-width="1"/>
    </pattern>
    
    <marker id="arrowInv" markerWidth="10" markerHeight="7" refX="8" refY="3.5" orient="auto">
      <path d="M0,0 L10,3.5 L0,7 Z" fill="url(#cyanInv)"/>
    </marker>
    
    <marker id="arrowPInv" markerWidth="10" markerHeight="7" refX="8" refY="3.5" orient="auto">
      <path d="M0,0 L10,3.5 L0,7 Z" fill="url(#pinkInv)"/>
    </marker>
  </defs>
  
  <!-- Background -->
  <rect width="900" height="450" fill="url(#bgInv)"/>
  <rect width="900" height="450" fill="url(#gridInv)"/>
  
  <!-- Title -->
  <text x="450" y="40" text-anchor="middle" font-family="'Playfair Display', Georgia, serif" font-size="30" font-weight="700" fill="white" filter="url(#glowInv)">
    🔄 DDIM Inversion
  </text>
  <text x="450" y="70" text-anchor="middle" font-family="'Inter', sans-serif" font-size="14" fill="rgba(255,255,255,0.5)">
    Find the latent code that reconstructs any image — Enables editing!
  </text>
  
  <!-- Main diagram -->
  <g transform="translate(450, 230)">
    
    <!-- Real Image -->
    <g transform="translate(-320, 0)">
      <rect x="-75" y="-75" width="150" height="150" rx="16" fill="rgba(16,185,129,0.2)" stroke="#34d399" stroke-width="3" filter="url(#shadowInv)"/>
      <circle cy="-10" r="40" fill="rgba(251,191,36,0.9)"/>
      <circle cx="-14" cy="-15" r="6" fill="#1e1e2e"/>
      <circle cx="14" cy="-15" r="6" fill="#1e1e2e"/>
      <path d="M -10,10 Q 0,22 10,10" fill="none" stroke="#1e1e2e" stroke-width="4" stroke-linecap="round"/>
      <rect x="-28" y="38" width="56" height="25" rx="5" fill="rgba(16,185,129,0.8)"/>
      <text y="105" text-anchor="middle" font-family="'JetBrains Mono', monospace" font-size="18" font-weight="700" fill="#34d399">x₀</text>
      <text y="125" text-anchor="middle" font-family="'Inter', sans-serif" font-size="11" fill="rgba(255,255,255,0.5)">Real Image</text>
    </g>
    
    <!-- Inversion Arrow (up) -->
    <path d="M -230,-30 Q -115,-100 0,-30" stroke="url(#cyanInv)" stroke-width="4" fill="none" marker-end="url(#arrowInv)" filter="url(#glowInv)"/>
    <text x="-115" y="-85" text-anchor="middle" font-family="'Inter', sans-serif" font-size="12" font-weight="600" fill="#22d3ee">DDIM Inversion</text>
    <text x="-115" y="-68" text-anchor="middle" font-family="'JetBrains Mono', monospace" font-size="10" fill="#67e8f9">Add noise forward</text>
    
    <!-- Latent Code -->
    <g transform="translate(0, 0)">
      <rect x="-75" y="-75" width="150" height="150" rx="16" fill="rgba(6,182,212,0.15)" stroke="#22d3ee" stroke-width="2" filter="url(#shadowInv)"/>
      <!-- Noise visualization -->
      <g fill="rgba(255,255,255,0.6)">
        <circle cx="-35" cy="-35" r="6"/><circle cx="30" cy="-38" r="6"/>
        <circle cx="-40" cy="25" r="6"/><circle cx="35" cy="30" r="6"/>
        <circle cx="0" cy="0" r="8"/><circle cx="-20" cy="10" r="6"/>
        <circle cx="20" cy="-15" r="6"/><circle cx="8" cy="28" r="6"/>
        <circle cx="-15" cy="-20" r="5"/><circle cx="25" cy="5" r="5"/>
      </g>
      <text y="105" text-anchor="middle" font-family="'JetBrains Mono', monospace" font-size="18" font-weight="700" fill="#22d3ee">zₜ</text>
      <text y="125" text-anchor="middle" font-family="'Inter', sans-serif" font-size="11" fill="rgba(255,255,255,0.5)">Latent Code</text>
    </g>
    
    <!-- Sampling Arrow (down) -->
    <path d="M 0,30 Q 115,100 230,30" stroke="url(#pinkInv)" stroke-width="4" fill="none" marker-end="url(#arrowPInv)" filter="url(#glowInv)"/>
    <text x="115" y="115" text-anchor="middle" font-family="'Inter', sans-serif" font-size="12" font-weight="600" fill="#f472b6">DDIM Sampling</text>
    <text x="115" y="132" text-anchor="middle" font-family="'JetBrains Mono', monospace" font-size="10" fill="#f9a8d4">Denoise backward</text>
    
    <!-- Reconstructed Image -->
    <g transform="translate(320, 0)">
      <rect x="-75" y="-75" width="150" height="150" rx="16" fill="rgba(236,72,153,0.2)" stroke="#f472b6" stroke-width="3" filter="url(#shadowInv)"/>
      <circle cy="-10" r="40" fill="rgba(251,191,36,0.9)"/>
      <circle cx="-14" cy="-15" r="6" fill="#1e1e2e"/>
      <circle cx="14" cy="-15" r="6" fill="#1e1e2e"/>
      <path d="M -10,10 Q 0,22 10,10" fill="none" stroke="#1e1e2e" stroke-width="4" stroke-linecap="round"/>
      <rect x="-28" y="38" width="56" height="25" rx="5" fill="rgba(236,72,153,0.8)"/>
      <text y="105" text-anchor="middle" font-family="'JetBrains Mono', monospace" font-size="18" font-weight="700" fill="#f472b6">x̂₀</text>
      <text y="125" text-anchor="middle" font-family="'Inter', sans-serif" font-size="11" fill="rgba(255,255,255,0.5)">Reconstructed</text>
    </g>
    
    <!-- Approx equal sign -->
    <text x="0" y="170" text-anchor="middle" font-family="'Inter', sans-serif" font-size="18" fill="rgba(255,255,255,0.5)">x₀ ≈ x̂₀</text>
  </g>
  
  <!-- Use cases -->
  <g transform="translate(450, 400)">
    <rect x="-380" y="-25" width="760" height="50" rx="12" fill="rgba(245,158,11,0.1)" stroke="rgba(245,158,11,0.3)" stroke-width="1"/>
    <text x="-250" y="5" font-family="'Inter', sans-serif" font-size="12" fill="#fcd34d">🎨 Image Editing</text>
    <text x="-80" y="5" font-family="'Inter', sans-serif" font-size="12" fill="#fcd34d">🔀 Style Transfer</text>
    <text x="80" y="5" font-family="'Inter', sans-serif" font-size="12" fill="#fcd34d">🌀 Interpolation</text>
    <text x="240" y="5" font-family="'Inter', sans-serif" font-size="12" fill="#fcd34d">✨ Prompt-to-Prompt</text>
  </g>
</svg>
