<svg xmlns="http://www.w3.org/2000/svg" viewBox="0 0 1200 500">
  <defs>
    <!-- Gradients -->
    <linearGradient id="bgGrad" x1="0%" y1="0%" x2="100%" y2="100%">
      <stop offset="0%" style="stop-color:#0f0c29"/>
      <stop offset="50%" style="stop-color:#302b63"/>
      <stop offset="100%" style="stop-color:#24243e"/>
    </linearGradient>
    
    <linearGradient id="glowGrad" x1="0%" y1="0%" x2="100%" y2="0%">
      <stop offset="0%" style="stop-color:#ff6b6b"/>
      <stop offset="25%" style="stop-color:#feca57"/>
      <stop offset="50%" style="stop-color:#48dbfb"/>
      <stop offset="75%" style="stop-color:#ff9ff3"/>
      <stop offset="100%" style="stop-color:#54a0ff"/>
    </linearGradient>
    
    <linearGradient id="nodeGrad1" x1="0%" y1="0%" x2="100%" y2="100%">
      <stop offset="0%" style="stop-color:#667eea"/>
      <stop offset="100%" style="stop-color:#764ba2"/>
    </linearGradient>
    
    <linearGradient id="nodeGrad2" x1="0%" y1="0%" x2="100%" y2="100%">
      <stop offset="0%" style="stop-color:#f093fb"/>
      <stop offset="100%" style="stop-color:#f5576c"/>
    </linearGradient>
    
    <linearGradient id="nodeGrad3" x1="0%" y1="0%" x2="100%" y2="100%">
      <stop offset="0%" style="stop-color:#4facfe"/>
      <stop offset="100%" style="stop-color:#00f2fe"/>
    </linearGradient>
    
    <linearGradient id="nodeGrad4" x1="0%" y1="0%" x2="100%" y2="100%">
      <stop offset="0%" style="stop-color:#43e97b"/>
      <stop offset="100%" style="stop-color:#38f9d7"/>
    </linearGradient>
    
    <linearGradient id="nodeGrad5" x1="0%" y1="0%" x2="100%" y2="100%">
      <stop offset="0%" style="stop-color:#fa709a"/>
      <stop offset="100%" style="stop-color:#fee140"/>
    </linearGradient>
    
    <!-- Filters -->
    <filter id="glow" x="-50%" y="-50%" width="200%" height="200%">
      <feGaussianBlur stdDeviation="3" result="coloredBlur"/>
      <feMerge>
        <feMergeNode in="coloredBlur"/>
        <feMergeNode in="SourceGraphic"/>
      </feMerge>
    </filter>
    
    <filter id="softGlow" x="-50%" y="-50%" width="200%" height="200%">
      <feGaussianBlur stdDeviation="8" result="coloredBlur"/>
      <feMerge>
        <feMergeNode in="coloredBlur"/>
        <feMergeNode in="SourceGraphic"/>
      </feMerge>
    </filter>
    
    <!-- Patterns -->
    <pattern id="grid" width="40" height="40" patternUnits="userSpaceOnUse">
      <path d="M 40 0 L 0 0 0 40" fill="none" stroke="rgba(255,255,255,0.03)" stroke-width="1"/>
    </pattern>
  </defs>
  
  <!-- Background -->
  <rect width="1200" height="500" fill="url(#bgGrad)"/>
  <rect width="1200" height="500" fill="url(#grid)"/>
  
  <!-- Animated particles/stars -->
  <g opacity="0.6">
    <circle cx="100" cy="80" r="2" fill="#fff"/>
    <circle cx="250" cy="120" r="1.5" fill="#fff"/>
    <circle cx="400" cy="60" r="1" fill="#fff"/>
    <circle cx="550" cy="100" r="2" fill="#fff"/>
    <circle cx="700" cy="50" r="1.5" fill="#fff"/>
    <circle cx="850" cy="90" r="1" fill="#fff"/>
    <circle cx="1000" cy="70" r="2" fill="#fff"/>
    <circle cx="1100" cy="110" r="1.5" fill="#fff"/>
    <circle cx="150" cy="400" r="1" fill="#fff"/>
    <circle cx="300" cy="420" r="2" fill="#fff"/>
    <circle cx="500" cy="380" r="1.5" fill="#fff"/>
    <circle cx="750" cy="430" r="1" fill="#fff"/>
    <circle cx="950" cy="390" r="2" fill="#fff"/>
    <circle cx="1080" cy="410" r="1.5" fill="#fff"/>
  </g>
  
  <!-- Main Title -->
  <text x="600" y="70" text-anchor="middle" font-family="system-ui, -apple-system, sans-serif" font-size="42" font-weight="800" fill="url(#glowGrad)" filter="url(#glow)">
    Generative AI: From Theory to Practice
  </text>
  <text x="600" y="105" text-anchor="middle" font-family="system-ui, -apple-system, sans-serif" font-size="18" fill="rgba(255,255,255,0.7)">
    A Complete Learning Path for Deep Generative Models
  </text>
  
  <!-- Central Neural Network Visualization -->
  <g transform="translate(600, 280)">
    <!-- Connection lines -->
    <g stroke="rgba(255,255,255,0.15)" stroke-width="1">
      <!-- Left connections -->
      <line x1="-450" y1="-50" x2="-300" y2="-80"/>
      <line x1="-450" y1="0" x2="-300" y2="-40"/>
      <line x1="-450" y1="50" x2="-300" y2="0"/>
      <line x1="-450" y1="0" x2="-300" y2="40"/>
      <line x1="-450" y1="-50" x2="-300" y2="80"/>
      
      <!-- Middle left to center -->
      <line x1="-300" y1="-80" x2="-100" y2="-50"/>
      <line x1="-300" y1="-40" x2="-100" y2="0"/>
      <line x1="-300" y1="0" x2="-100" y2="50"/>
      <line x1="-300" y1="40" x2="-100" y2="0"/>
      <line x1="-300" y1="80" x2="-100" y2="50"/>
      
      <!-- Center to middle right -->
      <line x1="-100" y1="-50" x2="100" y2="-60"/>
      <line x1="-100" y1="0" x2="100" y2="0"/>
      <line x1="-100" y1="50" x2="100" y2="60"/>
      
      <!-- Middle right to right -->
      <line x1="100" y1="-60" x2="300" y2="-40"/>
      <line x1="100" y1="0" x2="300" y2="0"/>
      <line x1="100" y1="60" x2="300" y2="40"/>
      
      <!-- Right to output -->
      <line x1="300" y1="-40" x2="450" y2="0"/>
      <line x1="300" y1="0" x2="450" y2="0"/>
      <line x1="300" y1="40" x2="450" y2="0"/>
    </g>
    
    <!-- Input Layer - Noise -->
    <g transform="translate(-450, 0)">
      <circle r="25" fill="url(#nodeGrad1)" filter="url(#softGlow)"/>
      <text y="5" text-anchor="middle" font-family="monospace" font-size="10" fill="white">z ~ N</text>
      <circle cy="-50" r="15" fill="url(#nodeGrad1)" opacity="0.7"/>
      <circle cy="50" r="15" fill="url(#nodeGrad1)" opacity="0.7"/>
    </g>
    
    <!-- Encoder/Hidden Layer 1 -->
    <g transform="translate(-300, 0)">
      <circle cy="-80" r="18" fill="url(#nodeGrad2)" filter="url(#glow)"/>
      <circle cy="-40" r="18" fill="url(#nodeGrad2)" filter="url(#glow)"/>
      <circle cy="0" r="18" fill="url(#nodeGrad2)" filter="url(#glow)"/>
      <circle cy="40" r="18" fill="url(#nodeGrad2)" filter="url(#glow)"/>
      <circle cy="80" r="18" fill="url(#nodeGrad2)" filter="url(#glow)"/>
    </g>
    
    <!-- Latent Space -->
    <g transform="translate(-100, 0)">
      <rect x="-35" y="-70" width="70" height="140" rx="10" fill="rgba(79,172,254,0.2)" stroke="url(#nodeGrad3)" stroke-width="2"/>
      <circle cy="-50" r="20" fill="url(#nodeGrad3)" filter="url(#softGlow)"/>
      <circle cy="0" r="20" fill="url(#nodeGrad3)" filter="url(#softGlow)"/>
      <circle cy="50" r="20" fill="url(#nodeGrad3)" filter="url(#softGlow)"/>
      <text y="95" text-anchor="middle" font-family="monospace" font-size="11" fill="rgba(255,255,255,0.8)">Latent</text>
    </g>
    
    <!-- Decoder/Hidden Layer 2 -->
    <g transform="translate(100, 0)">
      <circle cy="-60" r="18" fill="url(#nodeGrad4)" filter="url(#glow)"/>
      <circle cy="0" r="18" fill="url(#nodeGrad4)" filter="url(#glow)"/>
      <circle cy="60" r="18" fill="url(#nodeGrad4)" filter="url(#glow)"/>
    </g>
    
    <!-- Hidden Layer 3 -->
    <g transform="translate(300, 0)">
      <circle cy="-40" r="18" fill="url(#nodeGrad5)" filter="url(#glow)"/>
      <circle cy="0" r="18" fill="url(#nodeGrad5)" filter="url(#glow)"/>
      <circle cy="40" r="18" fill="url(#nodeGrad5)" filter="url(#glow)"/>
    </g>
    
    <!-- Output - Generated Image placeholder -->
    <g transform="translate(450, 0)">
      <rect x="-40" y="-40" width="80" height="80" rx="8" fill="rgba(255,255,255,0.1)" stroke="url(#glowGrad)" stroke-width="2" filter="url(#softGlow)"/>
      <text y="5" text-anchor="middle" font-family="system-ui" font-size="12" fill="white">🎨</text>
      <text y="70" text-anchor="middle" font-family="monospace" font-size="11" fill="rgba(255,255,255,0.8)">Output</text>
    </g>
    
    <!-- Labels -->
    <text x="-450" y="95" text-anchor="middle" font-family="monospace" font-size="11" fill="rgba(255,255,255,0.8)">Noise</text>
    <text x="-300" y="115" text-anchor="middle" font-family="monospace" font-size="11" fill="rgba(255,255,255,0.8)">Encoder</text>
    <text x="200" y="115" text-anchor="middle" font-family="monospace" font-size="11" fill="rgba(255,255,255,0.8)">Decoder</text>
  </g>
  
  <!-- Bottom Topic Cards -->
  <g transform="translate(0, 410)">
    <!-- Card 1: Autoencoders -->
    <g transform="translate(100, 0)">
      <rect x="-70" y="-25" width="140" height="50" rx="8" fill="rgba(102,126,234,0.3)" stroke="#667eea" stroke-width="1"/>
      <text y="-5" text-anchor="middle" font-family="system-ui" font-size="12" font-weight="600" fill="#a5b4fc">Autoencoders</text>
      <text y="12" text-anchor="middle" font-family="system-ui" font-size="10" fill="rgba(255,255,255,0.6)">VAE • β-VAE • HVAE</text>
    </g>
    
    <!-- Card 2: GANs -->
    <g transform="translate(280, 0)">
      <rect x="-70" y="-25" width="140" height="50" rx="8" fill="rgba(240,147,251,0.3)" stroke="#f093fb" stroke-width="1"/>
      <text y="-5" text-anchor="middle" font-family="system-ui" font-size="12" font-weight="600" fill="#f5d0fe">GANs</text>
      <text y="12" text-anchor="middle" font-family="system-ui" font-size="10" fill="rgba(255,255,255,0.6)">DCGAN • WGAN • StyleGAN</text>
    </g>
    
    <!-- Card 3: Flows -->
    <g transform="translate(460, 0)">
      <rect x="-70" y="-25" width="140" height="50" rx="8" fill="rgba(79,172,254,0.3)" stroke="#4facfe" stroke-width="1"/>
      <text y="-5" text-anchor="middle" font-family="system-ui" font-size="12" font-weight="600" fill="#93c5fd">Flows</text>
      <text y="12" text-anchor="middle" font-family="system-ui" font-size="10" fill="rgba(255,255,255,0.6)">RealNVP • Glow • MAF</text>
    </g>
    
    <!-- Card 4: Score Models -->
    <g transform="translate(640, 0)">
      <rect x="-70" y="-25" width="140" height="50" rx="8" fill="rgba(67,233,123,0.3)" stroke="#43e97b" stroke-width="1"/>
      <text y="-5" text-anchor="middle" font-family="system-ui" font-size="12" font-weight="600" fill="#86efac">Score Models</text>
      <text y="12" text-anchor="middle" font-family="system-ui" font-size="10" fill="rgba(255,255,255,0.6)">NCSN • SDE • Langevin</text>
    </g>
    
    <!-- Card 5: Diffusion -->
    <g transform="translate(820, 0)">
      <rect x="-70" y="-25" width="140" height="50" rx="8" fill="rgba(250,112,154,0.3)" stroke="#fa709a" stroke-width="1"/>
      <text y="-5" text-anchor="middle" font-family="system-ui" font-size="12" font-weight="600" fill="#fda4af">Diffusion</text>
      <text y="12" text-anchor="middle" font-family="system-ui" font-size="10" fill="rgba(255,255,255,0.6)">DDPM • DDIM • LDM</text>
    </g>
    
    <!-- Card 6: Control -->
    <g transform="translate(1000, 0)">
      <rect x="-70" y="-25" width="140" height="50" rx="8" fill="rgba(168,85,247,0.3)" stroke="#a855f7" stroke-width="1"/>
      <text y="-5" text-anchor="middle" font-family="system-ui" font-size="12" font-weight="600" fill="#d8b4fe">Control</text>
      <text y="12" text-anchor="middle" font-family="system-ui" font-size="10" fill="rgba(255,255,255,0.6)">CFG • ControlNet • T2I</text>
    </g>
  </g>
  
  <!-- Decorative elements -->
  <g opacity="0.3">
    <circle cx="50" cy="200" r="100" fill="none" stroke="#667eea" stroke-width="0.5"/>
    <circle cx="50" cy="200" r="130" fill="none" stroke="#667eea" stroke-width="0.5"/>
    <circle cx="1150" cy="300" r="80" fill="none" stroke="#f093fb" stroke-width="0.5"/>
    <circle cx="1150" cy="300" r="110" fill="none" stroke="#f093fb" stroke-width="0.5"/>
  </g>
</svg>

