<svg xmlns="http://www.w3.org/2000/svg" viewBox="0 0 900 500">
  <defs>
    <linearGradient id="bgDvF" x1="0%" y1="0%" x2="100%" y2="100%">
      <stop offset="0%" style="stop-color:#0a1628"/>
      <stop offset="100%" style="stop-color:#1a0a28"/>
    </linearGradient>
    <linearGradient id="diffGradDvF" x1="0%" y1="0%" x2="100%" y2="0%">
      <stop offset="0%" style="stop-color:#f97316"/>
      <stop offset="100%" style="stop-color:#ef4444"/>
    </linearGradient>
    <linearGradient id="flowGradDvF" x1="0%" y1="0%" x2="100%" y2="0%">
      <stop offset="0%" style="stop-color:#22c55e"/>
      <stop offset="100%" style="stop-color:#06b6d4"/>
    </linearGradient>
    <linearGradient id="unifiedGrad" x1="0%" y1="0%" x2="100%" y2="0%">
      <stop offset="0%" style="stop-color:#f97316"/>
      <stop offset="50%" style="stop-color:#a855f7"/>
      <stop offset="100%" style="stop-color:#22c55e"/>
    </linearGradient>
    <filter id="glowDvF">
      <feGaussianBlur stdDeviation="4" result="blur"/>
      <feMerge><feMergeNode in="blur"/><feMergeNode in="SourceGraphic"/></feMerge>
    </filter>
    <marker id="arrowDiffDvF" markerWidth="10" markerHeight="7" refX="9" refY="3.5" orient="auto">
      <polygon points="0 0, 10 3.5, 0 7" fill="#f97316"/>
    </marker>
    <marker id="arrowFlowDvF" markerWidth="10" markerHeight="7" refX="9" refY="3.5" orient="auto">
      <polygon points="0 0, 10 3.5, 0 7" fill="#22c55e"/>
    </marker>
  </defs>
  
  <rect width="900" height="500" fill="url(#bgDvF)"/>
  
  <text x="450" y="45" text-anchor="middle" font-family="system-ui" font-size="32" font-weight="700" fill="white" filter="url(#glowDvF)">
    🔀 Diffusion vs Flow Models
  </text>
  <text x="450" y="80" text-anchor="middle" font-family="system-ui" font-size="15" fill="rgba(255,255,255,0.7)">
    Two perspectives on the same goal: transforming noise to data
  </text>
  
  <!-- Diffusion Side -->
  <g transform="translate(225, 270)">
    <rect x="-175" y="-140" width="350" height="280" rx="15" fill="rgba(249,115,22,0.08)" stroke="url(#diffGradDvF)" stroke-width="2"/>
    <text y="-110" text-anchor="middle" font-family="system-ui" font-size="20" font-weight="700" fill="#fb923c">Diffusion (SDE)</text>
    
    <!-- Stochastic paths -->
    <g transform="translate(0, -30)">
      <text x="-140" y="-40" font-family="monospace" font-size="10" fill="#f87171">Noise</text>
      <text x="110" y="-40" font-family="monospace" font-size="10" fill="#4ade80">Data</text>
      
      <!-- Curved stochastic paths -->
      <path d="M -120,-20 C -80,-60 -40,10 0,-30 C 40,-70 80,0 120,-20" stroke="#f97316" stroke-width="2" fill="none" opacity="0.6"/>
      <path d="M -120,0 C -80,40 -40,-30 0,20 C 40,70 80,-10 120,10" stroke="#f97316" stroke-width="2" fill="none" opacity="0.7"/>
      <path d="M -120,20 C -80,-20 -40,60 0,10 C 40,-40 80,50 120,30" stroke="#f97316" stroke-width="2" fill="none" opacity="0.8"/>
      
      <!-- Start/end points -->
      <circle cx="-120" cy="-20" r="5" fill="#ef4444"/>
      <circle cx="-120" cy="0" r="5" fill="#ef4444"/>
      <circle cx="-120" cy="20" r="5" fill="#ef4444"/>
      <circle cx="120" cy="-20" r="5" fill="#22c55e"/>
      <circle cx="120" cy="10" r="5" fill="#22c55e"/>
      <circle cx="120" cy="30" r="5" fill="#22c55e"/>
    </g>
    
    <!-- Equations -->
    <g transform="translate(0, 80)">
      <rect x="-140" y="-35" width="280" height="70" rx="8" fill="rgba(0,0,0,0.3)"/>
      <text y="-10" text-anchor="middle" font-family="serif" font-size="13" fill="#fb923c">dx = f(x,t)dt + g(t)dW</text>
      <text y="15" text-anchor="middle" font-family="system-ui" font-size="11" fill="rgba(255,255,255,0.6)">Stochastic process + noise</text>
    </g>
    
    <!-- Properties -->
    <text y="115" text-anchor="middle" font-family="system-ui" font-size="11" fill="rgba(255,255,255,0.5)">✓ Proven • ✓ Stable • ✗ Many steps</text>
  </g>
  
  <!-- VS Connector -->
  <g transform="translate(450, 270)">
    <circle r="30" fill="rgba(168,85,247,0.3)" stroke="#a855f7" stroke-width="2"/>
    <text y="6" text-anchor="middle" font-family="system-ui" font-size="14" font-weight="700" fill="white">≡</text>
    
    <text y="-50" text-anchor="middle" font-family="system-ui" font-size="12" fill="#c4b5fd">Unified View</text>
    <text y="55" text-anchor="middle" font-family="system-ui" font-size="10" fill="rgba(255,255,255,0.5)">Both are CNFs!</text>
  </g>
  
  <!-- Flow Side -->
  <g transform="translate(675, 270)">
    <rect x="-175" y="-140" width="350" height="280" rx="15" fill="rgba(34,197,94,0.08)" stroke="url(#flowGradDvF)" stroke-width="2"/>
    <text y="-110" text-anchor="middle" font-family="system-ui" font-size="20" font-weight="700" fill="#4ade80">Flow Matching (ODE)</text>
    
    <!-- Straight paths -->
    <g transform="translate(0, -30)">
      <text x="-140" y="-40" font-family="monospace" font-size="10" fill="#f87171">Noise</text>
      <text x="110" y="-40" font-family="monospace" font-size="10" fill="#4ade80">Data</text>
      
      <!-- Straight paths -->
      <line x1="-120" y1="-20" x2="120" y2="-20" stroke="#22c55e" stroke-width="2"/>
      <line x1="-120" y1="0" x2="120" y2="10" stroke="#22c55e" stroke-width="2"/>
      <line x1="-120" y1="20" x2="120" y2="30" stroke="#22c55e" stroke-width="2"/>
      
      <!-- Start/end points -->
      <circle cx="-120" cy="-20" r="5" fill="#ef4444"/>
      <circle cx="-120" cy="0" r="5" fill="#ef4444"/>
      <circle cx="-120" cy="20" r="5" fill="#ef4444"/>
      <circle cx="120" cy="-20" r="5" fill="#22c55e"/>
      <circle cx="120" cy="10" r="5" fill="#22c55e"/>
      <circle cx="120" cy="30" r="5" fill="#22c55e"/>
    </g>
    
    <!-- Equations -->
    <g transform="translate(0, 80)">
      <rect x="-140" y="-35" width="280" height="70" rx="8" fill="rgba(0,0,0,0.3)"/>
      <text y="-10" text-anchor="middle" font-family="serif" font-size="13" fill="#4ade80">dx/dt = v_θ(x, t)</text>
      <text y="15" text-anchor="middle" font-family="system-ui" font-size="11" fill="rgba(255,255,255,0.6)">Deterministic velocity field</text>
    </g>
    
    <!-- Properties -->
    <text y="115" text-anchor="middle" font-family="system-ui" font-size="11" fill="rgba(255,255,255,0.5)">✓ Fewer steps • ✓ Simpler • ✓ Exact likelihood</text>
  </g>
  
  <!-- Bottom unified formula -->
  <g transform="translate(450, 460)">
    <rect x="-380" y="-30" width="760" height="55" rx="10" fill="rgba(168,85,247,0.1)" stroke="#a855f7"/>
    <text y="-5" text-anchor="middle" font-family="system-ui" font-size="12" font-weight="600" fill="#c4b5fd">Probability Flow ODE (Unified)</text>
    <text y="20" text-anchor="middle" font-family="serif" font-size="14" fill="rgba(255,255,255,0.8)">
      dx/dt = f(x,t) - ½g(t)²∇log p_t(x)
    </text>
  </g>
</svg>

