<svg xmlns="http://www.w3.org/2000/svg" viewBox="0 0 700 240">
  <defs>
    <linearGradient id="diverseGrad" x1="0%" y1="0%" x2="100%" y2="0%">
      <stop offset="0%" style="stop-color:#10B981"/>
      <stop offset="100%" style="stop-color:#3B82F6"/>
    </linearGradient>
  </defs>
  
  <!-- Background -->
  <rect width="700" height="240" fill="#0F172A"/>
  
  <!-- Title -->
  <text x="350" y="25" font-family="system-ui, sans-serif" font-size="16" fill="#F1F5F9" text-anchor="middle" font-weight="bold">Mode Collapse</text>
  
  <!-- Good: Diverse outputs -->
  <rect x="40" y="50" width="280" height="140" rx="10" fill="#1E293B" stroke="#10B981" stroke-width="2"/>
  <text x="180" y="75" font-family="system-ui, sans-serif" font-size="12" fill="#10B981" text-anchor="middle" font-weight="bold">✓ Diverse Outputs (Good)</text>
  
  <!-- Diverse samples -->
  <circle cx="80" cy="120" r="20" fill="#3B82F6"/>
  <circle cx="130" cy="130" r="18" fill="#8B5CF6"/>
  <circle cx="180" cy="115" r="22" fill="#EC4899"/>
  <circle cx="230" cy="125" r="19" fill="#F59E0B"/>
  <circle cx="280" cy="120" r="21" fill="#10B981"/>
  
  <text x="180" y="175" font-family="system-ui, sans-serif" font-size="9" fill="#94A3B8" text-anchor="middle">All modes of data distribution covered</text>
  
  <!-- Bad: Mode collapse -->
  <rect x="380" y="50" width="280" height="140" rx="10" fill="#1E293B" stroke="#EF4444" stroke-width="2"/>
  <text x="520" y="75" font-family="system-ui, sans-serif" font-size="12" fill="#EF4444" text-anchor="middle" font-weight="bold">✗ Mode Collapse (Bad)</text>
  
  <!-- Collapsed samples - all same -->
  <circle cx="420" cy="120" r="20" fill="#EF4444"/>
  <circle cx="470" cy="122" r="20" fill="#EF4444"/>
  <circle cx="520" cy="118" r="20" fill="#EF4444"/>
  <circle cx="570" cy="121" r="20" fill="#EF4444"/>
  <circle cx="620" cy="119" r="20" fill="#EF4444"/>
  
  <text x="520" y="175" font-family="system-ui, sans-serif" font-size="9" fill="#94A3B8" text-anchor="middle">Generator produces same output repeatedly</text>
  
  <!-- Arrow -->
  <text x="350" y="125" font-family="system-ui, sans-serif" font-size="24" fill="#64748B" text-anchor="middle">😱</text>
  
  <!-- Bottom note -->
  <rect x="150" y="200" width="400" height="30" rx="5" fill="#1E293B"/>
  <text x="350" y="220" font-family="system-ui, sans-serif" font-size="10" fill="#F59E0B" text-anchor="middle">Solutions: minibatch discrimination, unrolled GANs, WGAN</text>
</svg>
