<svg xmlns="http://www.w3.org/2000/svg" viewBox="0 0 900 450">
  <defs>
    <linearGradient id="bgGrad" x1="0%" y1="0%" x2="100%" y2="100%">
      <stop offset="0%" style="stop-color:#0f172a"/>
      <stop offset="100%" style="stop-color:#1e293b"/>
    </linearGradient>
    <linearGradient id="accentGrad" x1="0%" y1="0%" x2="100%" y2="0%">
      <stop offset="0%" style="stop-color:#f97316"/>
      <stop offset="50%" style="stop-color:#ec4899"/>
      <stop offset="100%" style="stop-color:#8b5cf6"/>
    </linearGradient>
    <filter id="glow">
      <feGaussianBlur stdDeviation="2" result="blur"/>
      <feMerge><feMergeNode in="blur"/><feMergeNode in="SourceGraphic"/></feMerge>
    </filter>
    <marker id="arrowOrange" markerWidth="10" markerHeight="7" refX="9" refY="3.5" orient="auto">
      <polygon points="0 0, 10 3.5, 0 7" fill="#f97316"/>
    </marker>
    <marker id="arrowPurple" markerWidth="10" markerHeight="7" refX="9" refY="3.5" orient="auto">
      <polygon points="0 0, 10 3.5, 0 7" fill="#8b5cf6"/>
    </marker>
  </defs>
  
  <rect width="900" height="450" fill="url(#bgGrad)"/>
  
  <!-- Title -->
  <text x="450" y="35" text-anchor="middle" font-family="system-ui" font-size="24" font-weight="700" fill="white" filter="url(#glow)">
    Image-to-Image Pipeline Architecture
  </text>
  
  <!-- SDEdit Flow -->
  <g transform="translate(0, 80)">
    <text x="50" y="0" font-family="system-ui" font-size="14" font-weight="600" fill="#f97316">SDEdit Process Flow</text>
    
    <!-- Original Image -->
    <g transform="translate(100, 60)">
      <rect x="-40" y="-40" width="80" height="80" rx="8" fill="rgba(249,115,22,0.2)" stroke="#f97316" stroke-width="2"/>
      <text y="5" text-anchor="middle" font-size="28">🖼️</text>
      <text y="55" text-anchor="middle" font-family="system-ui" font-size="10" fill="#fdba74">x₀</text>
    </g>
    
    <!-- Arrow -->
    <line x1="150" y1="60" x2="210" y2="60" stroke="#f97316" stroke-width="2" marker-end="url(#arrowOrange)"/>
    <text x="180" y="45" text-anchor="middle" font-family="system-ui" font-size="9" fill="#fdba74">Encode</text>
    
    <!-- Latent -->
    <g transform="translate(260, 60)">
      <rect x="-35" y="-35" width="70" height="70" rx="6" fill="rgba(249,115,22,0.15)" stroke="#f97316" stroke-width="1"/>
      <text y="5" text-anchor="middle" font-family="monospace" font-size="9" fill="#fdba74">z₀</text>
      <text y="50" text-anchor="middle" font-family="system-ui" font-size="8" fill="rgba(255,255,255,0.5)">latent</text>
    </g>
    
    <!-- Arrow to noised -->
    <line x1="305" y1="60" x2="365" y2="60" stroke="#f97316" stroke-width="2" marker-end="url(#arrowOrange)"/>
    <text x="335" y="45" text-anchor="middle" font-family="system-ui" font-size="9" fill="#fdba74">+noise</text>
    
    <!-- Noised Latent -->
    <g transform="translate(420, 60)">
      <rect x="-40" y="-40" width="80" height="80" rx="8" fill="rgba(239,68,68,0.2)" stroke="#ef4444" stroke-width="2"/>
      <!-- Noise pattern -->
      <g opacity="0.5">
        <circle cx="-15" cy="-15" r="3" fill="#fca5a5"/>
        <circle cx="10" cy="-10" r="2" fill="#fca5a5"/>
        <circle cx="-5" cy="10" r="4" fill="#fca5a5"/>
        <circle cx="15" cy="5" r="2" fill="#fca5a5"/>
      </g>
      <text y="55" text-anchor="middle" font-family="system-ui" font-size="10" fill="#fca5a5">z_t (noised)</text>
    </g>
    
    <!-- Arrow to denoise -->
    <line x1="470" y1="60" x2="530" y2="60" stroke="#8b5cf6" stroke-width="2" marker-end="url(#arrowPurple)"/>
    <text x="500" y="45" text-anchor="middle" font-family="system-ui" font-size="9" fill="#c4b5fd">denoise</text>
    
    <!-- U-Net -->
    <g transform="translate(600, 60)">
      <rect x="-55" y="-45" width="110" height="90" rx="8" fill="rgba(139,92,246,0.2)" stroke="#8b5cf6" stroke-width="2"/>
      <!-- U shape -->
      <path d="M -35,-20 L -35,10 Q -35,25 -20,25 L 20,25 Q 35,25 35,10 L 35,-20" fill="none" stroke="#a78bfa" stroke-width="3"/>
      <text y="55" text-anchor="middle" font-family="system-ui" font-size="10" fill="#c4b5fd">U-Net + CFG</text>
    </g>
    
    <!-- Arrow to output -->
    <line x1="665" y1="60" x2="725" y2="60" stroke="#10b981" stroke-width="2" marker-end="url(#arrowOrange)"/>
    
    <!-- Output -->
    <g transform="translate(790, 60)">
      <rect x="-45" y="-45" width="90" height="90" rx="8" fill="rgba(16,185,129,0.2)" stroke="#10b981" stroke-width="2"/>
      <text y="5" text-anchor="middle" font-size="32">✨</text>
      <text y="60" text-anchor="middle" font-family="system-ui" font-size="10" fill="#6ee7b7">Transformed</text>
    </g>
    
    <!-- Prompt injection -->
    <g transform="translate(600, -10)">
      <rect x="-70" y="-20" width="140" height="35" rx="6" fill="rgba(6,182,212,0.2)" stroke="#06b6d4" stroke-width="1"/>
      <text y="3" text-anchor="middle" font-family="Georgia" font-size="10" fill="#22d3ee" font-style="italic">"oil painting style"</text>
    </g>
    <line x1="600" y1="5" x2="600" y2="15" stroke="#06b6d4" stroke-width="1" stroke-dasharray="4"/>
  </g>
  
  <!-- Strength Visualization -->
  <g transform="translate(0, 220)">
    <text x="50" y="0" font-family="system-ui" font-size="14" font-weight="600" fill="#ec4899">Strength Parameter Effect</text>
    
    <g transform="translate(100, 70)">
      <!-- s = 0.2 -->
      <g transform="translate(0, 0)">
        <rect x="-35" y="-50" width="70" height="100" rx="6" fill="rgba(249,115,22,0.15)"/>
        <text y="-30" text-anchor="middle" font-family="monospace" font-size="10" fill="#fbbf24">s = 0.2</text>
        <text y="0" text-anchor="middle" font-size="24">🏠</text>
        <text y="25" text-anchor="middle" font-family="system-ui" font-size="8" fill="rgba(255,255,255,0.6)">Minor change</text>
        <rect x="-30" y="35" width="60" height="4" rx="2" fill="rgba(255,255,255,0.1)"/>
        <rect x="-30" y="35" width="12" height="4" rx="2" fill="#f97316"/>
      </g>
      
      <!-- s = 0.5 -->
      <g transform="translate(140, 0)">
        <rect x="-35" y="-50" width="70" height="100" rx="6" fill="rgba(168,85,247,0.15)"/>
        <text y="-30" text-anchor="middle" font-family="monospace" font-size="10" fill="#c084fc">s = 0.5</text>
        <text y="0" text-anchor="middle" font-size="24">🏡</text>
        <text y="25" text-anchor="middle" font-family="system-ui" font-size="8" fill="rgba(255,255,255,0.6)">Balanced</text>
        <rect x="-30" y="35" width="60" height="4" rx="2" fill="rgba(255,255,255,0.1)"/>
        <rect x="-30" y="35" width="30" height="4" rx="2" fill="#a855f7"/>
      </g>
      
      <!-- s = 0.75 -->
      <g transform="translate(280, 0)">
        <rect x="-35" y="-50" width="70" height="100" rx="6" fill="rgba(59,130,246,0.15)"/>
        <text y="-30" text-anchor="middle" font-family="monospace" font-size="10" fill="#60a5fa">s = 0.75</text>
        <text y="0" text-anchor="middle" font-size="24">🏰</text>
        <text y="25" text-anchor="middle" font-family="system-ui" font-size="8" fill="rgba(255,255,255,0.6)">Major change</text>
        <rect x="-30" y="35" width="60" height="4" rx="2" fill="rgba(255,255,255,0.1)"/>
        <rect x="-30" y="35" width="45" height="4" rx="2" fill="#3b82f6"/>
      </g>
      
      <!-- s = 1.0 -->
      <g transform="translate(420, 0)">
        <rect x="-35" y="-50" width="70" height="100" rx="6" fill="rgba(16,185,129,0.15)"/>
        <text y="-30" text-anchor="middle" font-family="monospace" font-size="10" fill="#34d399">s = 1.0</text>
        <text y="0" text-anchor="middle" font-size="24">🌌</text>
        <text y="25" text-anchor="middle" font-family="system-ui" font-size="8" fill="rgba(255,255,255,0.6)">Full generation</text>
        <rect x="-30" y="35" width="60" height="4" rx="2" fill="rgba(255,255,255,0.1)"/>
        <rect x="-30" y="35" width="60" height="4" rx="2" fill="#10b981"/>
      </g>
    </g>
  </g>
  
  <!-- Formula Box -->
  <g transform="translate(620, 280)">
    <rect x="-150" y="-50" width="300" height="100" rx="10" fill="rgba(255,255,255,0.03)" stroke="rgba(255,255,255,0.1)"/>
    <text y="-25" text-anchor="middle" font-family="system-ui" font-size="11" font-weight="600" fill="white">Core Formula</text>
    <text y="5" text-anchor="middle" font-family="serif" font-size="14" fill="#fcd34d">
      x_t = √ᾱ_t · x₀ + √(1-ᾱ_t) · ε
    </text>
    <text y="30" text-anchor="middle" font-family="system-ui" font-size="9" fill="rgba(255,255,255,0.5)">
      t controls noise level → strength controls t
    </text>
  </g>
</svg>

