<svg xmlns="http://www.w3.org/2000/svg" viewBox="0 0 650 140">
  <defs>
    <linearGradient id="prog0" x1="0%" y1="0%" x2="100%" y2="0%">
      <stop offset="0%" style="stop-color:#3B82F6"/>
      <stop offset="100%" style="stop-color:#2563EB"/>
    </linearGradient>
    <linearGradient id="prog1" x1="0%" y1="0%" x2="100%" y2="0%">
      <stop offset="0%" style="stop-color:#6366F1"/>
      <stop offset="100%" style="stop-color:#4F46E5"/>
    </linearGradient>
    <linearGradient id="prog2" x1="0%" y1="0%" x2="100%" y2="0%">
      <stop offset="0%" style="stop-color:#8B5CF6"/>
      <stop offset="100%" style="stop-color:#7C3AED"/>
    </linearGradient>
    <linearGradient id="prog3" x1="0%" y1="0%" x2="100%" y2="0%">
      <stop offset="0%" style="stop-color:#A855F7"/>
      <stop offset="100%" style="stop-color:#9333EA"/>
    </linearGradient>
    <linearGradient id="prog4" x1="0%" y1="0%" x2="100%" y2="0%">
      <stop offset="0%" style="stop-color:#94A3B8"/>
      <stop offset="100%" style="stop-color:#64748B"/>
    </linearGradient>
  </defs>
  
  <!-- Background -->
  <rect width="650" height="140" fill="#0F172A"/>
  
  <!-- Title -->
  <text x="325" y="20" font-family="system-ui, sans-serif" font-size="12" fill="#F1F5F9" text-anchor="middle" font-weight="bold">Forward Diffusion Progression</text>
  
  <!-- Step 0 -->
  <rect x="30" y="35" width="70" height="60" rx="8" fill="url(#prog0)"/>
  <text x="65" y="65" font-family="system-ui, sans-serif" font-size="18" fill="white" text-anchor="middle">🖼️</text>
  <text x="65" y="82" font-family="system-ui, sans-serif" font-size="8" fill="#BFDBFE" text-anchor="middle">Clean</text>
  <text x="65" y="110" font-family="system-ui, sans-serif" font-size="8" fill="#3B82F6" text-anchor="middle" font-weight="bold">t = 0</text>
  <text x="65" y="125" font-family="system-ui, sans-serif" font-size="7" fill="#94A3B8" text-anchor="middle">100% signal</text>
  
  <!-- Arrow -->
  <line x1="105" y1="65" x2="130" y2="65" stroke="#64748B" stroke-width="2"/>
  <polygon points="130,65 123,60 123,70" fill="#64748B"/>
  
  <!-- Step 1 -->
  <rect x="140" y="35" width="70" height="60" rx="8" fill="url(#prog1)"/>
  <text x="175" y="65" font-family="system-ui, sans-serif" font-size="18" fill="white" text-anchor="middle">🖼️</text>
  <text x="175" y="82" font-family="system-ui, sans-serif" font-size="7" fill="#C7D2FE" text-anchor="middle">+ noise</text>
  <text x="175" y="110" font-family="system-ui, sans-serif" font-size="8" fill="#6366F1" text-anchor="middle" font-weight="bold">t = T/4</text>
  <text x="175" y="125" font-family="system-ui, sans-serif" font-size="7" fill="#94A3B8" text-anchor="middle">~75% signal</text>
  
  <!-- Arrow -->
  <line x1="215" y1="65" x2="240" y2="65" stroke="#64748B" stroke-width="2"/>
  <polygon points="240,65 233,60 233,70" fill="#64748B"/>
  
  <!-- Step 2 -->
  <rect x="250" y="35" width="70" height="60" rx="8" fill="url(#prog2)"/>
  <text x="285" y="65" font-family="system-ui, sans-serif" font-size="18" fill="white" text-anchor="middle">📊</text>
  <text x="285" y="82" font-family="system-ui, sans-serif" font-size="7" fill="#DDD6FE" text-anchor="middle">+ noise</text>
  <text x="285" y="110" font-family="system-ui, sans-serif" font-size="8" fill="#8B5CF6" text-anchor="middle" font-weight="bold">t = T/2</text>
  <text x="285" y="125" font-family="system-ui, sans-serif" font-size="7" fill="#94A3B8" text-anchor="middle">~50% signal</text>
  
  <!-- Arrow -->
  <line x1="325" y1="65" x2="350" y2="65" stroke="#64748B" stroke-width="2"/>
  <polygon points="350,65 343,60 343,70" fill="#64748B"/>
  
  <!-- Step 3 -->
  <rect x="360" y="35" width="70" height="60" rx="8" fill="url(#prog3)"/>
  <text x="395" y="65" font-family="system-ui, sans-serif" font-size="18" fill="white" text-anchor="middle">░░</text>
  <text x="395" y="82" font-family="system-ui, sans-serif" font-size="7" fill="#E9D5FF" text-anchor="middle">+ noise</text>
  <text x="395" y="110" font-family="system-ui, sans-serif" font-size="8" fill="#A855F7" text-anchor="middle" font-weight="bold">t = 3T/4</text>
  <text x="395" y="125" font-family="system-ui, sans-serif" font-size="7" fill="#94A3B8" text-anchor="middle">~25% signal</text>
  
  <!-- Arrow -->
  <line x1="435" y1="65" x2="460" y2="65" stroke="#64748B" stroke-width="2"/>
  <polygon points="460,65 453,60 453,70" fill="#64748B"/>
  
  <!-- Step 4 -->
  <rect x="470" y="35" width="70" height="60" rx="8" fill="url(#prog4)"/>
  <text x="505" y="65" font-family="system-ui, sans-serif" font-size="18" fill="white" text-anchor="middle">░░░</text>
  <text x="505" y="82" font-family="system-ui, sans-serif" font-size="8" fill="#CBD5E1" text-anchor="middle">Pure</text>
  <text x="505" y="110" font-family="system-ui, sans-serif" font-size="8" fill="#94A3B8" text-anchor="middle" font-weight="bold">t = T</text>
  <text x="505" y="125" font-family="system-ui, sans-serif" font-size="7" fill="#94A3B8" text-anchor="middle">~0% signal</text>
  
  <!-- Arrow showing what we learn -->
  <text x="595" y="70" font-family="system-ui, sans-serif" font-size="10" fill="#10B981" text-anchor="middle" font-weight="bold">← Reverse</text>
</svg>

