<svg xmlns="http://www.w3.org/2000/svg" viewBox="0 0 1000 450">
  <defs>
    <linearGradient id="bgFwd" x1="0%" y1="0%" x2="100%" y2="100%">
      <stop offset="0%" style="stop-color:#0a0a1a"/>
      <stop offset="50%" style="stop-color:#0f1628"/>
      <stop offset="100%" style="stop-color:#1a0a2e"/>
    </linearGradient>
    
    <linearGradient id="purpleGrad" x1="0%" y1="0%" x2="100%" y2="0%">
      <stop offset="0%" style="stop-color:#7c3aed"/>
      <stop offset="100%" style="stop-color:#a855f7"/>
    </linearGradient>
    
    <linearGradient id="fadeGrad" x1="0%" y1="0%" x2="100%" y2="0%">
      <stop offset="0%" style="stop-color:#7c3aed"/>
      <stop offset="50%" style="stop-color:#8b5cf6"/>
      <stop offset="100%" style="stop-color:rgba(255,255,255,0.3)"/>
    </linearGradient>
    
    <filter id="glowFwd">
      <feGaussianBlur stdDeviation="4" result="coloredBlur"/>
      <feMerge><feMergeNode in="coloredBlur"/><feMergeNode in="SourceGraphic"/></feMerge>
    </filter>
    
    <filter id="shadowFwd">
      <feDropShadow dx="0" dy="4" stdDeviation="6" flood-color="rgba(0,0,0,0.4)"/>
    </filter>
    
    <pattern id="gridFwd" width="20" height="20" patternUnits="userSpaceOnUse">
      <path d="M 20 0 L 0 0 0 20" fill="none" stroke="rgba(255,255,255,0.02)" stroke-width="1"/>
    </pattern>
    
    <marker id="arrowF" markerWidth="10" markerHeight="7" refX="8" refY="3.5" orient="auto">
      <path d="M0,0 L10,3.5 L0,7 Z" fill="url(#purpleGrad)"/>
    </marker>
  </defs>
  
  <!-- Background -->
  <rect width="1000" height="450" fill="url(#bgFwd)"/>
  <rect width="1000" height="450" fill="url(#gridFwd)"/>
  
  <!-- Decorative orbs -->
  <ellipse cx="100" cy="225" rx="150" ry="180" fill="rgba(124,58,237,0.08)"/>
  <ellipse cx="900" cy="225" rx="150" ry="180" fill="rgba(255,255,255,0.03)"/>
  
  <!-- Title -->
  <text x="500" y="45" text-anchor="middle" font-family="'Playfair Display', Georgia, serif" font-size="36" font-weight="700" fill="white" filter="url(#glowFwd)">
    📉 Forward Diffusion Process
  </text>
  <text x="500" y="75" text-anchor="middle" font-family="'Inter', sans-serif" font-size="14" fill="rgba(255,255,255,0.6)">
    The controlled destruction of information — Foundation of generative learning
  </text>
  
  <!-- Main visualization: Image degradation sequence -->
  <g transform="translate(500, 210)">
    <!-- Connection line -->
    <path d="M -380,0 L 380,0" stroke="url(#fadeGrad)" stroke-width="4" stroke-dasharray="10,5" marker-end="url(#arrowF)" filter="url(#glowFwd)"/>
    
    <!-- t=0: Clean image -->
    <g transform="translate(-350, 0)">
      <rect x="-55" y="-55" width="110" height="110" rx="14" fill="rgba(124,58,237,0.3)" stroke="#a855f7" stroke-width="3" filter="url(#shadowFwd)"/>
      <circle cy="-5" r="30" fill="rgba(251,191,36,0.9)"/>
      <circle cx="-10" cy="-10" r="5" fill="#1e1e2e"/>
      <circle cx="10" cy="-10" r="5" fill="#1e1e2e"/>
      <path d="M -8,8 Q 0,16 8,8" fill="none" stroke="#1e1e2e" stroke-width="3" stroke-linecap="round"/>
      <rect x="-22" y="30" width="44" height="18" rx="4" fill="rgba(124,58,237,0.8)"/>
      <text y="85" text-anchor="middle" font-family="'JetBrains Mono', monospace" font-size="16" font-weight="700" fill="#c4b5fd">x₀</text>
      <text y="105" text-anchor="middle" font-family="'Inter', sans-serif" font-size="11" fill="rgba(255,255,255,0.5)">Clean data</text>
    </g>
    
    <!-- t=T/4: Slight noise -->
    <g transform="translate(-175, 0)">
      <rect x="-55" y="-55" width="110" height="110" rx="14" fill="rgba(139,92,246,0.25)" stroke="#8b5cf6" stroke-width="2" filter="url(#shadowFwd)"/>
      <circle cy="-5" r="30" fill="rgba(251,191,36,0.7)"/>
      <circle cx="-10" cy="-10" r="5" fill="rgba(30,30,46,0.8)"/>
      <circle cx="10" cy="-10" r="5" fill="rgba(30,30,46,0.8)"/>
      <path d="M -8,8 Q 0,16 8,8" fill="none" stroke="rgba(30,30,46,0.7)" stroke-width="3" stroke-linecap="round"/>
      <rect x="-22" y="30" width="44" height="18" rx="4" fill="rgba(139,92,246,0.6)"/>
      <g fill="rgba(255,255,255,0.5)">
        <circle cx="-35" cy="-35" r="3"/><circle cx="30" cy="-30" r="3"/>
        <circle cx="-30" cy="35" r="3"/><circle cx="35" cy="25" r="3"/>
      </g>
      <text y="85" text-anchor="middle" font-family="'JetBrains Mono', monospace" font-size="14" fill="#c4b5fd">x_{T/4}</text>
      <text y="105" text-anchor="middle" font-family="'Inter', sans-serif" font-size="11" fill="rgba(255,255,255,0.5)">Light noise</text>
    </g>
    
    <!-- t=T/2: Medium noise -->
    <g transform="translate(0, 0)">
      <rect x="-55" y="-55" width="110" height="110" rx="14" fill="rgba(168,85,247,0.2)" stroke="#a855f7" stroke-width="2" filter="url(#shadowFwd)"/>
      <circle cy="-5" r="30" fill="rgba(251,191,36,0.4)"/>
      <circle cx="-10" cy="-10" r="5" fill="rgba(30,30,46,0.5)"/>
      <circle cx="10" cy="-10" r="5" fill="rgba(30,30,46,0.5)"/>
      <rect x="-22" y="30" width="44" height="18" rx="4" fill="rgba(168,85,247,0.4)"/>
      <g fill="rgba(255,255,255,0.5)">
        <circle cx="-35" cy="-35" r="4"/><circle cx="25" cy="-32" r="3"/>
        <circle cx="-28" cy="32" r="4"/><circle cx="32" cy="28" r="3"/>
        <circle cx="-15" cy="-20" r="3"/><circle cx="18" cy="15" r="4"/>
        <circle cx="5" cy="-38" r="3"/><circle cx="-38" cy="5" r="3"/>
      </g>
      <text y="85" text-anchor="middle" font-family="'JetBrains Mono', monospace" font-size="14" fill="#d8b4fe">x_{T/2}</text>
      <text y="105" text-anchor="middle" font-family="'Inter', sans-serif" font-size="11" fill="rgba(255,255,255,0.5)">Mixed signal</text>
    </g>
    
    <!-- t=3T/4: Heavy noise -->
    <g transform="translate(175, 0)">
      <rect x="-55" y="-55" width="110" height="110" rx="14" fill="rgba(192,132,252,0.15)" stroke="#c084fc" stroke-width="2" filter="url(#shadowFwd)"/>
      <circle cy="-5" r="30" fill="rgba(251,191,36,0.15)"/>
      <g fill="rgba(255,255,255,0.55)">
        <circle cx="-30" cy="-30" r="4"/><circle cx="28" cy="-28" r="4"/>
        <circle cx="-25" cy="28" r="4"/><circle cx="30" cy="32" r="4"/>
        <circle cx="-12" cy="-18" r="4"/><circle cx="15" cy="12" r="4"/>
        <circle cx="8" cy="-35" r="4"/><circle cx="-35" cy="8" r="4"/>
        <circle cx="0" cy="0" r="5"/><circle cx="-18" cy="5" r="4"/>
        <circle cx="22" cy="-8" r="4"/><circle cx="5" cy="25" r="4"/>
      </g>
      <text y="85" text-anchor="middle" font-family="'JetBrains Mono', monospace" font-size="14" fill="#e9d5ff">x_{3T/4}</text>
      <text y="105" text-anchor="middle" font-family="'Inter', sans-serif" font-size="11" fill="rgba(255,255,255,0.5)">Mostly noise</text>
    </g>
    
    <!-- t=T: Pure noise -->
    <g transform="translate(350, 0)">
      <rect x="-55" y="-55" width="110" height="110" rx="14" fill="rgba(255,255,255,0.05)" stroke="rgba(255,255,255,0.3)" stroke-width="2" filter="url(#shadowFwd)"/>
      <g fill="rgba(255,255,255,0.6)">
        <circle cx="-28" cy="-28" r="5"/><circle cx="25" cy="-30" r="5"/>
        <circle cx="-32" cy="25" r="5"/><circle cx="28" cy="28" r="5"/>
        <circle cx="-10" cy="-15" r="5"/><circle cx="12" cy="10" r="5"/>
        <circle cx="5" cy="-32" r="4"/><circle cx="-35" cy="5" r="5"/>
        <circle cx="0" cy="0" r="6"/><circle cx="-15" cy="8" r="5"/>
        <circle cx="20" cy="-5" r="5"/><circle cx="8" cy="22" r="5"/>
        <circle cx="-22" cy="-10" r="4"/><circle cx="35" cy="10" r="4"/>
        <circle cx="-8" cy="32" r="4"/><circle cx="15" cy="-20" r="4"/>
      </g>
      <text y="85" text-anchor="middle" font-family="'JetBrains Mono', monospace" font-size="16" font-weight="700" fill="rgba(255,255,255,0.7)">xₜ</text>
      <text y="105" text-anchor="middle" font-family="'Inter', sans-serif" font-size="11" fill="rgba(255,255,255,0.5)">≈ 𝒩(0, I)</text>
    </g>
  </g>
  
  <!-- Key equations -->
  <g transform="translate(500, 380)">
    <rect x="-420" y="-35" width="380" height="70" rx="12" fill="rgba(124,58,237,0.1)" stroke="rgba(124,58,237,0.3)" stroke-width="1"/>
    <text x="-230" y="-12" text-anchor="middle" font-family="'Inter', sans-serif" font-size="12" font-weight="600" fill="url(#purpleGrad)">🔑 Reparameterization Trick</text>
    <text x="-230" y="12" text-anchor="middle" font-family="'JetBrains Mono', monospace" font-size="14" fill="white">xₜ = √ᾱₜ·x₀ + √(1-ᾱₜ)·ε</text>
    <text x="-230" y="30" text-anchor="middle" font-family="'Inter', sans-serif" font-size="10" fill="rgba(255,255,255,0.5)">Sample any timestep directly!</text>
    
    <rect x="40" y="-35" width="380" height="70" rx="12" fill="rgba(6,182,212,0.1)" stroke="rgba(6,182,212,0.3)" stroke-width="1"/>
    <text x="230" y="-12" text-anchor="middle" font-family="'Inter', sans-serif" font-size="12" font-weight="600" fill="#22d3ee">📊 Signal-to-Noise Ratio</text>
    <text x="230" y="12" text-anchor="middle" font-family="'JetBrains Mono', monospace" font-size="14" fill="white">SNR(t) = ᾱₜ / (1 - ᾱₜ)</text>
    <text x="230" y="30" text-anchor="middle" font-family="'Inter', sans-serif" font-size="10" fill="rgba(255,255,255,0.5)">Measures information destruction</text>
  </g>
</svg>
