<svg viewBox="0 0 700 500" xmlns="http://www.w3.org/2000/svg">
  <defs>
    <linearGradient id="bgGradPS" x1="0%" y1="0%" x2="100%" y2="100%">
      <stop offset="0%" style="stop-color:#1a1a2e"/>
      <stop offset="100%" style="stop-color:#16213e"/>
    </linearGradient>
    <linearGradient id="level1GradPS" x1="0%" y1="0%" x2="100%" y2="0%">
      <stop offset="0%" style="stop-color:#4ecca3"/>
      <stop offset="100%" style="stop-color:#36d1dc"/>
    </linearGradient>
    <linearGradient id="level2GradPS" x1="0%" y1="0%" x2="100%" y2="0%">
      <stop offset="0%" style="stop-color:#f093fb"/>
      <stop offset="100%" style="stop-color:#f5576c"/>
    </linearGradient>
    <linearGradient id="level3GradPS" x1="0%" y1="0%" x2="100%" y2="0%">
      <stop offset="0%" style="stop-color:#ffecd2"/>
      <stop offset="100%" style="stop-color:#fcb69f"/>
    </linearGradient>
  </defs>
  
  <rect width="700" height="500" fill="url(#bgGradPS)"/>
  
  <text x="350" y="35" text-anchor="middle" font-family="Arial, sans-serif" font-size="22" font-weight="bold" fill="#ffffff">Essential PyTorch Skills for GenAI</text>
  
  <!-- Main line -->
  <line x1="50" y1="60" x2="50" y2="470" stroke="#5c6bc0" stroke-width="4" stroke-linecap="round"/>
  
  <!-- Level 1 -->
  <g>
    <rect x="60" y="55" width="120" height="28" rx="14" fill="url(#level1GradPS)"/>
    <text x="120" y="75" text-anchor="middle" font-family="Arial, sans-serif" font-size="14" font-weight="bold" fill="#1a1a2e">Level 1 - Basics</text>
    
    <line x1="50" y1="95" x2="100" y2="95" stroke="#4ecca3" stroke-width="2"/>
    <line x1="100" y1="95" x2="100" y2="175" stroke="#4ecca3" stroke-width="2"/>
    
    <g transform="translate(110, 85)">
      <rect x="0" y="0" width="260" height="24" rx="4" fill="rgba(78, 204, 163, 0.2)" stroke="#4ecca3" stroke-width="1"/>
      <circle cx="12" cy="12" r="4" fill="#4ecca3"/>
      <text x="24" y="16" font-family="Arial, sans-serif" font-size="12" fill="#e0e0e0">Tensor operations and shapes</text>
    </g>
    <g transform="translate(110, 113)">
      <rect x="0" y="0" width="260" height="24" rx="4" fill="rgba(78, 204, 163, 0.2)" stroke="#4ecca3" stroke-width="1"/>
      <circle cx="12" cy="12" r="4" fill="#4ecca3"/>
      <text x="24" y="16" font-family="Arial, sans-serif" font-size="12" fill="#e0e0e0">nn.Module and forward pass</text>
    </g>
    <g transform="translate(110, 141)">
      <rect x="0" y="0" width="260" height="24" rx="4" fill="rgba(78, 204, 163, 0.2)" stroke="#4ecca3" stroke-width="1"/>
      <circle cx="12" cy="12" r="4" fill="#4ecca3"/>
      <text x="24" y="16" font-family="Arial, sans-serif" font-size="12" fill="#e0e0e0">DataLoader and transforms</text>
    </g>
    <g transform="translate(110, 169)">
      <rect x="0" y="0" width="260" height="24" rx="4" fill="rgba(78, 204, 163, 0.2)" stroke="#4ecca3" stroke-width="1"/>
      <circle cx="12" cy="12" r="4" fill="#4ecca3"/>
      <text x="24" y="16" font-family="Arial, sans-serif" font-size="12" fill="#e0e0e0">Basic training loop</text>
    </g>
  </g>
  
  <!-- Level 2 -->
  <g>
    <rect x="60" y="205" width="160" height="28" rx="14" fill="url(#level2GradPS)"/>
    <text x="140" y="225" text-anchor="middle" font-family="Arial, sans-serif" font-size="14" font-weight="bold" fill="#1a1a2e">Level 2 - Intermediate</text>
    
    <line x1="50" y1="245" x2="100" y2="245" stroke="#f093fb" stroke-width="2"/>
    <line x1="100" y1="245" x2="100" y2="325" stroke="#f093fb" stroke-width="2"/>
    
    <g transform="translate(110, 235)">
      <rect x="0" y="0" width="260" height="24" rx="4" fill="rgba(240, 147, 251, 0.2)" stroke="#f093fb" stroke-width="1"/>
      <circle cx="12" cy="12" r="4" fill="#f093fb"/>
      <text x="24" y="16" font-family="Arial, sans-serif" font-size="12" fill="#e0e0e0">Custom loss functions</text>
    </g>
    <g transform="translate(110, 263)">
      <rect x="0" y="0" width="260" height="24" rx="4" fill="rgba(240, 147, 251, 0.2)" stroke="#f093fb" stroke-width="1"/>
      <circle cx="12" cy="12" r="4" fill="#f093fb"/>
      <text x="24" y="16" font-family="Arial, sans-serif" font-size="12" fill="#e0e0e0">Multiple optimizers (GANs)</text>
    </g>
    <g transform="translate(110, 291)">
      <rect x="0" y="0" width="260" height="24" rx="4" fill="rgba(240, 147, 251, 0.2)" stroke="#f093fb" stroke-width="1"/>
      <circle cx="12" cy="12" r="4" fill="#f093fb"/>
      <text x="24" y="16" font-family="Arial, sans-serif" font-size="12" fill="#e0e0e0">Learning rate schedulers</text>
    </g>
    <g transform="translate(110, 319)">
      <rect x="0" y="0" width="260" height="24" rx="4" fill="rgba(240, 147, 251, 0.2)" stroke="#f093fb" stroke-width="1"/>
      <circle cx="12" cy="12" r="4" fill="#f093fb"/>
      <text x="24" y="16" font-family="Arial, sans-serif" font-size="12" fill="#e0e0e0">GPU training and mixed precision</text>
    </g>
  </g>
  
  <!-- Level 3 -->
  <g>
    <rect x="60" y="355" width="150" height="28" rx="14" fill="url(#level3GradPS)"/>
    <text x="135" y="375" text-anchor="middle" font-family="Arial, sans-serif" font-size="14" font-weight="bold" fill="#1a1a2e">Level 3 - Advanced</text>
    
    <line x1="50" y1="395" x2="100" y2="395" stroke="#fcb69f" stroke-width="2"/>
    <line x1="100" y1="395" x2="100" y2="475" stroke="#fcb69f" stroke-width="2"/>
    
    <g transform="translate(110, 385)">
      <rect x="0" y="0" width="260" height="24" rx="4" fill="rgba(252, 182, 159, 0.2)" stroke="#fcb69f" stroke-width="1"/>
      <circle cx="12" cy="12" r="4" fill="#fcb69f"/>
      <text x="24" y="16" font-family="Arial, sans-serif" font-size="12" fill="#e0e0e0">Custom autograd functions</text>
    </g>
    <g transform="translate(110, 413)">
      <rect x="0" y="0" width="260" height="24" rx="4" fill="rgba(252, 182, 159, 0.2)" stroke="#fcb69f" stroke-width="1"/>
      <circle cx="12" cy="12" r="4" fill="#fcb69f"/>
      <text x="24" y="16" font-family="Arial, sans-serif" font-size="12" fill="#e0e0e0">Gradient checkpointing</text>
    </g>
    <g transform="translate(110, 441)">
      <rect x="0" y="0" width="260" height="24" rx="4" fill="rgba(252, 182, 159, 0.2)" stroke="#fcb69f" stroke-width="1"/>
      <circle cx="12" cy="12" r="4" fill="#fcb69f"/>
      <text x="24" y="16" font-family="Arial, sans-serif" font-size="12" fill="#e0e0e0">Distributed training</text>
    </g>
    <g transform="translate(110, 469)">
      <rect x="0" y="0" width="260" height="24" rx="4" fill="rgba(252, 182, 159, 0.2)" stroke="#fcb69f" stroke-width="1"/>
      <circle cx="12" cy="12" r="4" fill="#fcb69f"/>
      <text x="24" y="16" font-family="Arial, sans-serif" font-size="12" fill="#e0e0e0">TorchScript for deployment</text>
    </g>
  </g>
  
  <!-- PyTorch box -->
  <g transform="translate(520, 60)">
    <rect x="0" y="0" width="150" height="70" rx="8" fill="rgba(238, 76, 44, 0.15)" stroke="#ee4c2c" stroke-width="1"/>
    <text x="75" y="32" text-anchor="middle" font-family="Arial, sans-serif" font-size="18" font-weight="bold" fill="#ee4c2c">PyTorch</text>
    <text x="75" y="52" text-anchor="middle" font-family="Arial, sans-serif" font-size="11" fill="#aaaaaa">Framework for GenAI</text>
  </g>
</svg>
